{"glyphs":{"0":{"ha":854,"x_min":0,"x_max":748,"o":"m 320 534 l 320 748 l 427 748 l 427 534 l 320 534 m 214 0 l 214 107 l 107 107 l 107 214 l 0 214 l 0 961 l 107 961 l 107 1068 l 214 1068 l 214 214 l 320 214 l 320 107 l 534 107 l 534 0 l 214 0 m 534 107 l 534 961 l 427 961 l 427 1068 l 214 1068 l 214 1175 l 534 1175 l 534 1068 l 641 1068 l 641 961 l 748 961 l 748 214 l 641 214 l 641 107 l 534 107 z "},"1":{"ha":641,"x_min":0,"x_max":534,"o":"m 427 107 l 427 214 l 534 214 l 534 107 l 427 107 m 0 0 l 0 107 l 107 107 l 107 961 l 0 961 l 0 1068 l 107 1068 l 107 1175 l 320 1175 l 320 107 l 427 107 l 427 0 l 0 0 z "},"2":{"ha":854,"x_min":0,"x_max":748,"o":"m 534 0 l 534 107 l 320 107 l 320 214 l 641 214 l 641 320 l 748 320 l 748 0 l 534 0 m 0 0 l 0 534 l 107 534 l 107 641 l 214 641 l 214 748 l 427 748 l 427 854 l 534 854 l 534 1068 l 214 1068 l 214 854 l 0 854 l 0 1068 l 107 1068 l 107 1175 l 641 1175 l 641 1068 l 748 1068 l 748 854 l 641 854 l 641 748 l 534 748 l 534 641 l 320 641 l 320 534 l 214 534 l 214 107 l 320 107 l 320 0 l 0 0 z "},"3":{"ha":854,"x_min":0,"x_max":748,"o":"m 107 0 l 107 107 l 0 107 l 0 320 l 214 320 l 214 107 l 534 107 l 534 641 l 320 641 l 320 748 l 427 748 l 427 854 l 534 854 l 534 748 l 641 748 l 641 641 l 748 641 l 748 107 l 641 107 l 641 0 l 107 0 m 0 854 l 0 1175 l 107 1175 l 107 1068 l 214 1068 l 214 854 l 0 854 m 534 854 l 534 1068 l 214 1068 l 214 1175 l 748 1175 l 748 961 l 641 961 l 641 854 l 534 854 z "},"4":{"ha":854,"x_min":0,"x_max":748,"o":"m 427 534 l 427 854 l 320 854 l 320 641 l 214 641 l 214 534 l 427 534 m 427 0 l 427 427 l 0 427 l 0 641 l 107 641 l 107 748 l 214 748 l 214 961 l 320 961 l 320 1175 l 641 1175 l 641 534 l 748 534 l 748 427 l 641 427 l 641 0 l 427 0 z "},"5":{"ha":854,"x_min":0,"x_max":748,"o":"m 107 0 l 107 107 l 0 107 l 0 320 l 214 320 l 214 107 l 534 107 l 534 0 l 107 0 m 534 107 l 534 641 l 320 641 l 320 748 l 641 748 l 641 641 l 748 641 l 748 214 l 641 214 l 641 107 l 534 107 m 0 534 l 0 1175 l 320 1175 l 320 1068 l 214 1068 l 214 641 l 320 641 l 320 534 l 0 534 m 534 854 l 534 961 l 320 961 l 320 1068 l 641 1068 l 641 1175 l 748 1175 l 748 854 l 534 854 z "},"6":{"ha":854,"x_min":0,"x_max":748,"o":"m 534 107 l 534 641 l 320 641 l 320 748 l 641 748 l 641 641 l 748 641 l 748 214 l 641 214 l 641 107 l 534 107 m 107 0 l 107 107 l 0 107 l 0 748 l 107 748 l 107 961 l 214 961 l 214 1068 l 320 1068 l 320 1175 l 641 1175 l 641 1068 l 427 1068 l 427 961 l 320 961 l 320 854 l 214 854 l 214 641 l 320 641 l 320 534 l 214 534 l 214 107 l 534 107 l 534 0 l 107 0 z "},"7":{"ha":854,"x_min":0,"x_max":748,"o":"m 214 0 l 214 320 l 320 320 l 320 641 l 427 641 l 427 854 l 534 854 l 534 961 l 320 961 l 320 854 l 0 854 l 0 1175 l 107 1175 l 107 1068 l 534 1068 l 534 1175 l 748 1175 l 748 961 l 641 961 l 641 748 l 534 748 l 534 427 l 427 427 l 427 0 l 214 0 z "},"8":{"ha":854,"x_min":0,"x_max":748,"o":"m 214 0 l 214 107 l 107 107 l 107 214 l 0 214 l 0 534 l 107 534 l 107 641 l 214 641 l 214 214 l 320 214 l 320 107 l 534 107 l 534 0 l 214 0 m 534 107 l 534 534 l 427 534 l 427 641 l 214 641 l 214 748 l 107 748 l 107 854 l 0 854 l 0 961 l 107 961 l 107 1068 l 214 1068 l 214 854 l 320 854 l 320 748 l 534 748 l 534 641 l 641 641 l 641 534 l 748 534 l 748 214 l 641 214 l 641 107 l 534 107 m 534 748 l 534 961 l 427 961 l 427 1068 l 214 1068 l 214 1175 l 534 1175 l 534 1068 l 641 1068 l 641 961 l 748 961 l 748 854 l 641 854 l 641 748 l 534 748 z "},"9":{"ha":854,"x_min":0,"x_max":748,"o":"m 107 534 l 107 641 l 0 641 l 0 961 l 107 961 l 107 1068 l 214 1068 l 214 641 l 427 641 l 427 534 l 107 534 m 107 0 l 107 107 l 320 107 l 320 214 l 427 214 l 427 320 l 534 320 l 534 641 l 427 641 l 427 748 l 534 748 l 534 1068 l 214 1068 l 214 1175 l 641 1175 l 641 1068 l 748 1068 l 748 427 l 641 427 l 641 214 l 534 214 l 534 107 l 427 107 l 427 0 l 107 0 z "}," ":{"ha":854,"x_min":0,"x_max":0,"o":""},"!":{"ha":534,"x_min":214,"x_max":427,"o":"m 214 -107 l 214 107 l 427 107 l 427 0 l 320 0 l 320 -107 l 214 -107 m 214 320 l 214 1068 l 320 1068 l 320 1282 l 427 1282 l 427 534 l 320 534 l 320 320 l 214 320 z "},"\"":{"ha":641,"x_min":0,"x_max":534,"o":"m 0 961 l 0 1068 l 107 1068 l 107 961 l 0 961 m 320 961 l 320 1068 l 427 1068 l 427 961 l 320 961 m 107 1068 l 107 1175 l 0 1175 l 0 1389 l 214 1389 l 214 1068 l 107 1068 m 427 1068 l 427 1175 l 320 1175 l 320 1389 l 534 1389 l 534 1068 l 427 1068 z "},"#":{"ha":854,"x_min":0,"x_max":748,"o":"m 427 427 l 427 854 l 320 854 l 320 427 l 427 427 m 107 107 l 107 320 l 0 320 l 0 427 l 107 427 l 107 854 l 0 854 l 0 961 l 107 961 l 107 1068 l 214 1068 l 214 1175 l 320 1175 l 320 961 l 427 961 l 427 1068 l 534 1068 l 534 1175 l 641 1175 l 641 961 l 748 961 l 748 854 l 641 854 l 641 427 l 748 427 l 748 320 l 641 320 l 641 214 l 534 214 l 534 107 l 427 107 l 427 320 l 320 320 l 320 214 l 214 214 l 214 107 l 107 107 z "},"$":{"ha":854,"x_min":0,"x_max":748,"o":"m 0 214 l 0 427 l 214 427 l 214 320 l 107 320 l 107 214 l 0 214 m 534 320 l 534 534 l 427 534 l 427 320 l 534 320 m 320 641 l 320 854 l 214 854 l 214 641 l 320 641 m 214 0 l 214 320 l 320 320 l 320 534 l 107 534 l 107 641 l 0 641 l 0 854 l 107 854 l 107 961 l 427 961 l 427 1175 l 534 1175 l 534 961 l 748 961 l 748 748 l 641 748 l 641 854 l 427 854 l 427 641 l 641 641 l 641 534 l 748 534 l 748 320 l 641 320 l 641 214 l 320 214 l 320 0 l 214 0 z "},"%":{"ha":748,"x_min":107,"x_max":641,"o":"m 427 0 l 427 214 l 641 214 l 641 0 l 427 0 m 107 961 l 107 1175 l 320 1175 l 320 961 l 107 961 m 107 0 l 107 320 l 214 320 l 214 534 l 320 534 l 320 748 l 427 748 l 427 961 l 534 961 l 534 1175 l 641 1175 l 641 854 l 534 854 l 534 641 l 427 641 l 427 427 l 320 427 l 320 214 l 214 214 l 214 0 l 107 0 z "},"&":{"ha":854,"x_min":0,"x_max":748,"o":"m 214 0 l 214 107 l 427 107 l 427 0 l 214 0 m 641 0 l 641 107 l 427 107 l 427 427 l 320 427 l 320 534 l 214 534 l 214 107 l 107 107 l 107 214 l 0 214 l 0 534 l 107 534 l 107 641 l 214 641 l 214 748 l 107 748 l 107 1068 l 214 1068 l 214 1175 l 534 1175 l 534 1068 l 641 1068 l 641 748 l 534 748 l 534 641 l 427 641 l 427 1068 l 320 1068 l 320 641 l 427 641 l 427 534 l 534 534 l 534 427 l 641 427 l 641 534 l 748 534 l 748 320 l 641 320 l 641 214 l 748 214 l 748 0 l 641 0 z "},"'":{"ha":320,"x_min":0,"x_max":214,"o":"m 0 961 l 0 1068 l 107 1068 l 107 961 l 0 961 m 107 1068 l 107 1175 l 0 1175 l 0 1389 l 214 1389 l 214 1068 l 107 1068 z "},"(":{"ha":748,"x_min":214,"x_max":534,"o":"m 427 -107 l 427 0 l 534 0 l 534 -107 l 427 -107 m 320 0 l 320 107 l 214 107 l 214 1068 l 320 1068 l 320 1175 l 427 1175 l 427 0 l 320 0 m 427 1175 l 427 1282 l 534 1282 l 534 1175 l 427 1175 z "},")":{"ha":748,"x_min":214,"x_max":534,"o":"m 214 -107 l 214 0 l 320 0 l 320 -107 l 214 -107 m 320 0 l 320 1175 l 427 1175 l 427 1068 l 534 1068 l 534 107 l 427 107 l 427 0 l 320 0 m 214 1175 l 214 1282 l 320 1282 l 320 1175 l 214 1175 z "},"*":{"ha":854,"x_min":0,"x_max":748,"o":"m 107 214 l 107 427 l 214 427 l 214 534 l 0 534 l 0 641 l 214 641 l 214 748 l 107 748 l 107 961 l 214 961 l 214 854 l 320 854 l 320 748 l 427 748 l 427 854 l 534 854 l 534 961 l 641 961 l 641 748 l 534 748 l 534 641 l 748 641 l 748 534 l 534 534 l 534 427 l 641 427 l 641 214 l 534 214 l 534 320 l 427 320 l 427 427 l 320 427 l 320 320 l 214 320 l 214 214 l 107 214 z "},"+":{"ha":748,"x_min":0,"x_max":641,"o":"m 214 214 l 214 534 l 0 534 l 0 641 l 214 641 l 214 854 l 320 854 l 320 961 l 427 961 l 427 641 l 641 641 l 641 534 l 427 534 l 427 320 l 320 320 l 320 214 l 214 214 z "},",":{"ha":427,"x_min":107,"x_max":320,"o":"m 107 -214 l 107 -107 l 214 -107 l 214 -214 l 107 -214 m 214 -107 l 214 0 l 107 0 l 107 214 l 320 214 l 320 -107 l 214 -107 z "},"-":{"ha":748,"x_min":0,"x_max":641,"o":"m 0 534 l 0 641 l 641 641 l 641 534 l 0 534 z "},".":{"ha":427,"x_min":107,"x_max":320,"o":"m 107 0 l 107 214 l 320 214 l 320 0 l 107 0 z "},"/":{"ha":854,"x_min":107,"x_max":748,"o":"m 107 -107 l 107 214 l 214 214 l 214 427 l 320 427 l 320 641 l 427 641 l 427 854 l 534 854 l 534 1068 l 641 1068 l 641 1282 l 748 1282 l 748 961 l 641 961 l 641 748 l 534 748 l 534 534 l 427 534 l 427 320 l 320 320 l 320 107 l 214 107 l 214 -107 l 107 -107 z "},":":{"ha":427,"x_min":107,"x_max":320,"o":"m 107 0 l 107 214 l 320 214 l 320 0 l 107 0 m 107 641 l 107 854 l 320 854 l 320 641 l 107 641 z "},";":{"ha":427,"x_min":107,"x_max":320,"o":"m 107 -214 l 107 -107 l 214 -107 l 214 -214 l 107 -214 m 214 -107 l 214 0 l 107 0 l 107 214 l 320 214 l 320 -107 l 214 -107 m 107 641 l 107 854 l 320 854 l 320 641 l 107 641 z "},"<":{"ha":854,"x_min":107,"x_max":748,"o":"m 641 0 l 641 214 l 748 214 l 748 0 l 641 0 m 534 214 l 534 320 l 427 320 l 427 427 l 320 427 l 320 534 l 107 534 l 107 641 l 320 641 l 320 748 l 427 748 l 427 854 l 534 854 l 534 961 l 641 961 l 641 748 l 534 748 l 534 427 l 641 427 l 641 214 l 534 214 m 641 961 l 641 1175 l 748 1175 l 748 961 l 641 961 z "},"=":{"ha":854,"x_min":0,"x_max":748,"o":"m 0 320 l 0 427 l 748 427 l 748 320 l 0 320 m 0 641 l 0 748 l 748 748 l 748 641 l 0 641 z "},">":{"ha":854,"x_min":107,"x_max":748,"o":"m 107 0 l 107 214 l 214 214 l 214 0 l 107 0 m 214 214 l 214 427 l 320 427 l 320 748 l 214 748 l 214 961 l 320 961 l 320 854 l 427 854 l 427 748 l 534 748 l 534 641 l 748 641 l 748 534 l 534 534 l 534 427 l 427 427 l 427 320 l 320 320 l 320 214 l 214 214 m 107 961 l 107 1175 l 214 1175 l 214 961 l 107 961 z "},"?":{"ha":854,"x_min":0,"x_max":748,"o":"m 320 -107 l 320 107 l 534 107 l 534 0 l 427 0 l 427 -107 l 320 -107 m 320 320 l 320 534 l 427 534 l 427 320 l 320 320 m 107 748 l 107 854 l 0 854 l 0 1068 l 107 1068 l 107 1175 l 214 1175 l 214 854 l 320 854 l 320 748 l 107 748 m 427 534 l 427 748 l 534 748 l 534 1068 l 427 1068 l 427 1175 l 214 1175 l 214 1282 l 534 1282 l 534 1175 l 641 1175 l 641 1068 l 748 1068 l 748 748 l 641 748 l 641 641 l 534 641 l 534 534 l 427 534 z "},"@":{"ha":854,"x_min":0,"x_max":748,"o":"m 214 427 l 214 748 l 320 748 l 320 854 l 534 854 l 534 641 l 427 641 l 427 534 l 320 534 l 320 427 l 214 427 m 214 0 l 214 107 l 107 107 l 107 214 l 0 214 l 0 961 l 107 961 l 107 1068 l 214 1068 l 214 1175 l 641 1175 l 641 1068 l 748 1068 l 748 427 l 641 427 l 641 320 l 320 320 l 320 427 l 534 427 l 534 534 l 641 534 l 641 961 l 534 961 l 534 1068 l 320 1068 l 320 961 l 214 961 l 214 854 l 107 854 l 107 320 l 214 320 l 214 214 l 320 214 l 320 107 l 534 107 l 534 214 l 748 214 l 748 107 l 641 107 l 641 0 l 214 0 z "},"A":{"ha":854,"x_min":0,"x_max":748,"o":"m 427 641 l 427 961 l 320 961 l 320 854 l 214 854 l 214 641 l 427 641 m 107 0 l 107 107 l 0 107 l 0 748 l 107 748 l 107 961 l 214 961 l 214 1068 l 427 1068 l 427 1175 l 748 1175 l 748 1068 l 641 1068 l 641 107 l 748 107 l 748 0 l 534 0 l 534 107 l 427 107 l 427 534 l 214 534 l 214 0 l 107 0 z "},"B":{"ha":854,"x_min":0,"x_max":748,"o":"m 427 748 l 427 1068 l 320 1068 l 320 748 l 427 748 m 0 0 l 0 107 l 107 107 l 107 1068 l 0 1068 l 0 1175 l 534 1175 l 534 1068 l 641 1068 l 641 854 l 534 854 l 534 641 l 641 641 l 641 534 l 748 534 l 748 214 l 641 214 l 641 107 l 534 107 l 534 534 l 427 534 l 427 641 l 320 641 l 320 107 l 534 107 l 534 0 l 0 0 z "},"C":{"ha":854,"x_min":0,"x_max":748,"o":"m 534 107 l 534 320 l 748 320 l 748 214 l 641 214 l 641 107 l 534 107 m 214 0 l 214 107 l 107 107 l 107 214 l 0 214 l 0 961 l 107 961 l 107 1068 l 214 1068 l 214 1175 l 534 1175 l 534 1068 l 320 1068 l 320 961 l 214 961 l 214 214 l 320 214 l 320 107 l 534 107 l 534 0 l 214 0 m 641 748 l 641 961 l 534 961 l 534 1068 l 641 1068 l 641 1175 l 748 1175 l 748 748 l 641 748 z "},"D":{"ha":854,"x_min":0,"x_max":748,"o":"m 0 0 l 0 107 l 107 107 l 107 1068 l 0 1068 l 0 1175 l 534 1175 l 534 1068 l 641 1068 l 641 961 l 748 961 l 748 214 l 641 214 l 641 107 l 534 107 l 534 961 l 427 961 l 427 1068 l 320 1068 l 320 107 l 534 107 l 534 0 l 0 0 z "},"E":{"ha":854,"x_min":0,"x_max":748,"o":"m 0 0 l 0 107 l 107 107 l 107 748 l 0 748 l 0 854 l 107 854 l 107 1068 l 0 1068 l 0 1175 l 641 1175 l 641 1068 l 748 1068 l 748 961 l 534 961 l 534 1068 l 320 1068 l 320 748 l 534 748 l 534 641 l 320 641 l 320 107 l 534 107 l 534 214 l 641 214 l 641 320 l 748 320 l 748 107 l 641 107 l 641 0 l 0 0 z "},"F":{"ha":854,"x_min":0,"x_max":748,"o":"m 0 0 l 0 107 l 107 107 l 107 748 l 0 748 l 0 854 l 107 854 l 107 1068 l 0 1068 l 0 1175 l 641 1175 l 641 1068 l 748 1068 l 748 961 l 534 961 l 534 1068 l 320 1068 l 320 748 l 534 748 l 534 641 l 320 641 l 320 107 l 214 107 l 214 0 l 0 0 z "},"G":{"ha":854,"x_min":0,"x_max":748,"o":"m 534 107 l 534 427 l 427 427 l 427 534 l 748 534 l 748 214 l 641 214 l 641 107 l 534 107 m 214 0 l 214 107 l 107 107 l 107 214 l 0 214 l 0 961 l 107 961 l 107 1068 l 214 1068 l 214 1175 l 534 1175 l 534 1068 l 320 1068 l 320 961 l 214 961 l 214 214 l 320 214 l 320 107 l 534 107 l 534 0 l 214 0 m 641 748 l 641 961 l 534 961 l 534 1068 l 641 1068 l 641 1175 l 748 1175 l 748 748 l 641 748 z "},"H":{"ha":854,"x_min":0,"x_max":748,"o":"m 214 0 l 214 107 l 107 107 l 107 1068 l 0 1068 l 0 1175 l 214 1175 l 214 1068 l 320 1068 l 320 748 l 534 748 l 534 1175 l 641 1175 l 641 1068 l 748 1068 l 748 0 l 641 0 l 641 107 l 534 107 l 534 641 l 320 641 l 320 0 l 214 0 z "},"I":{"ha":641,"x_min":0,"x_max":534,"o":"m 0 961 l 0 1068 l 107 1068 l 107 961 l 0 961 m 107 0 l 107 107 l 214 107 l 214 1068 l 107 1068 l 107 1175 l 534 1175 l 534 1068 l 427 1068 l 427 214 l 534 214 l 534 107 l 320 107 l 320 0 l 107 0 z "},"J":{"ha":854,"x_min":0,"x_max":748,"o":"m 107 107 l 107 214 l 0 214 l 0 320 l 214 320 l 214 107 l 107 107 m 214 0 l 214 107 l 427 107 l 427 1068 l 214 1068 l 214 961 l 0 961 l 0 1068 l 107 1068 l 107 1175 l 748 1175 l 748 1068 l 641 1068 l 641 107 l 534 107 l 534 0 l 214 0 z "},"K":{"ha":854,"x_min":0,"x_max":748,"o":"m 0 0 l 0 107 l 107 107 l 107 1068 l 0 1068 l 0 1175 l 320 1175 l 320 748 l 427 748 l 427 961 l 534 961 l 534 1175 l 748 1175 l 748 1068 l 641 1068 l 641 854 l 534 854 l 534 534 l 641 534 l 641 320 l 748 320 l 748 0 l 534 0 l 534 427 l 427 427 l 427 534 l 320 534 l 320 0 l 0 0 z "},"L":{"ha":854,"x_min":0,"x_max":748,"o":"m 0 0 l 0 107 l 107 107 l 107 1068 l 0 1068 l 0 1175 l 427 1175 l 427 1068 l 320 1068 l 320 107 l 534 107 l 534 214 l 748 214 l 748 107 l 641 107 l 641 0 l 0 0 z "},"M":{"ha":961,"x_min":0,"x_max":854,"o":"m 214 0 l 214 107 l 107 107 l 107 1068 l 0 1068 l 0 1175 l 320 1175 l 320 961 l 427 961 l 427 748 l 534 748 l 534 961 l 641 961 l 641 1175 l 854 1175 l 854 0 l 748 0 l 748 107 l 641 107 l 641 641 l 534 641 l 534 427 l 427 427 l 427 641 l 320 641 l 320 0 l 214 0 z "},"N":{"ha":854,"x_min":0,"x_max":748,"o":"m 214 0 l 214 107 l 107 107 l 107 1068 l 0 1068 l 0 1175 l 320 1175 l 320 961 l 427 961 l 427 748 l 534 748 l 534 1175 l 641 1175 l 641 1068 l 748 1068 l 748 0 l 641 0 l 641 107 l 534 107 l 534 427 l 427 427 l 427 641 l 320 641 l 320 0 l 214 0 z "},"O":{"ha":854,"x_min":0,"x_max":748,"o":"m 214 0 l 214 107 l 107 107 l 107 214 l 0 214 l 0 961 l 107 961 l 107 1068 l 214 1068 l 214 214 l 320 214 l 320 107 l 534 107 l 534 0 l 214 0 m 534 107 l 534 961 l 427 961 l 427 1068 l 214 1068 l 214 1175 l 534 1175 l 534 1068 l 641 1068 l 641 961 l 748 961 l 748 214 l 641 214 l 641 107 l 534 107 z "},"P":{"ha":854,"x_min":0,"x_max":748,"o":"m 427 641 l 427 748 l 534 748 l 534 961 l 427 961 l 427 1068 l 320 1068 l 320 641 l 427 641 m 0 0 l 0 107 l 107 107 l 107 641 l 0 641 l 0 748 l 107 748 l 107 1068 l 0 1068 l 0 1175 l 534 1175 l 534 1068 l 641 1068 l 641 961 l 748 961 l 748 748 l 641 748 l 641 641 l 534 641 l 534 534 l 320 534 l 320 0 l 0 0 z "},"Q":{"ha":854,"x_min":0,"x_max":748,"o":"m 214 0 l 214 107 l 107 107 l 107 214 l 0 214 l 0 961 l 107 961 l 107 1068 l 214 1068 l 214 214 l 320 214 l 320 107 l 427 107 l 427 0 l 214 0 m 641 -107 l 641 0 l 534 0 l 534 107 l 427 107 l 427 214 l 320 214 l 320 427 l 427 427 l 427 320 l 534 320 l 534 961 l 427 961 l 427 1068 l 214 1068 l 214 1175 l 534 1175 l 534 1068 l 641 1068 l 641 961 l 748 961 l 748 214 l 641 214 l 641 107 l 748 107 l 748 -107 l 641 -107 z "},"R":{"ha":854,"x_min":0,"x_max":748,"o":"m 427 641 l 427 748 l 534 748 l 534 961 l 427 961 l 427 1068 l 320 1068 l 320 641 l 427 641 m 0 0 l 0 107 l 107 107 l 107 641 l 0 641 l 0 748 l 107 748 l 107 1068 l 0 1068 l 0 1175 l 534 1175 l 534 1068 l 641 1068 l 641 961 l 748 961 l 748 748 l 641 748 l 641 641 l 534 641 l 534 534 l 641 534 l 641 320 l 748 320 l 748 0 l 534 0 l 534 320 l 427 320 l 427 534 l 320 534 l 320 0 l 0 0 z "},"S":{"ha":854,"x_min":0,"x_max":748,"o":"m 0 0 l 0 534 l 107 534 l 107 214 l 214 214 l 214 107 l 107 107 l 107 0 l 0 0 m 214 0 l 214 107 l 427 107 l 427 214 l 534 214 l 534 534 l 427 534 l 427 641 l 214 641 l 214 748 l 107 748 l 107 854 l 0 854 l 0 1068 l 107 1068 l 107 1175 l 427 1175 l 427 1068 l 214 1068 l 214 854 l 320 854 l 320 748 l 534 748 l 534 641 l 641 641 l 641 534 l 748 534 l 748 214 l 641 214 l 641 107 l 534 107 l 534 0 l 214 0 m 534 854 l 534 961 l 427 961 l 427 1068 l 534 1068 l 534 1175 l 641 1175 l 641 854 l 534 854 z "},"T":{"ha":961,"x_min":0,"x_max":854,"o":"m 0 961 l 0 1068 l 107 1068 l 107 961 l 0 961 m 427 0 l 427 107 l 320 107 l 320 1068 l 107 1068 l 107 1175 l 854 1175 l 854 961 l 748 961 l 748 1068 l 534 1068 l 534 0 l 427 0 z "},"U":{"ha":854,"x_min":0,"x_max":748,"o":"m 214 0 l 214 107 l 107 107 l 107 214 l 0 214 l 0 854 l 107 854 l 107 1068 l 0 1068 l 0 1175 l 320 1175 l 320 854 l 214 854 l 214 214 l 320 214 l 320 107 l 534 107 l 534 0 l 214 0 m 534 107 l 534 1175 l 641 1175 l 641 1068 l 748 1068 l 748 214 l 641 214 l 641 107 l 534 107 z "},"V":{"ha":854,"x_min":0,"x_max":748,"o":"m 320 0 l 320 214 l 214 214 l 214 427 l 107 427 l 107 1068 l 0 1068 l 0 1175 l 320 1175 l 320 320 l 427 320 l 427 534 l 534 534 l 534 1175 l 641 1175 l 641 961 l 748 961 l 748 641 l 641 641 l 641 427 l 534 427 l 534 214 l 427 214 l 427 0 l 320 0 z "},"W":{"ha":961,"x_min":0,"x_max":854,"o":"m 214 0 l 214 214 l 107 214 l 107 1068 l 0 1068 l 0 1175 l 320 1175 l 320 534 l 427 534 l 427 748 l 534 748 l 534 534 l 641 534 l 641 1068 l 534 1068 l 534 1175 l 748 1175 l 748 961 l 854 961 l 854 214 l 748 214 l 748 0 l 641 0 l 641 214 l 534 214 l 534 427 l 427 427 l 427 214 l 320 214 l 320 0 l 214 0 z "},"X":{"ha":854,"x_min":0,"x_max":748,"o":"m 427 0 l 427 534 l 534 534 l 534 320 l 641 320 l 641 107 l 748 107 l 748 0 l 427 0 m 214 854 l 214 961 l 107 961 l 107 1068 l 0 1068 l 0 1175 l 320 1175 l 320 854 l 214 854 m 0 0 l 0 320 l 107 320 l 107 534 l 214 534 l 214 748 l 320 748 l 320 854 l 427 854 l 427 1068 l 534 1068 l 534 1175 l 748 1175 l 748 1068 l 641 1068 l 641 854 l 534 854 l 534 748 l 427 748 l 427 534 l 320 534 l 320 320 l 214 320 l 214 0 l 0 0 z "},"Y":{"ha":854,"x_min":0,"x_max":748,"o":"m 107 0 l 107 107 l 0 107 l 0 214 l 214 214 l 214 107 l 427 107 l 427 214 l 534 214 l 534 427 l 427 427 l 427 534 l 214 534 l 214 641 l 107 641 l 107 1068 l 0 1068 l 0 1175 l 320 1175 l 320 641 l 534 641 l 534 1068 l 427 1068 l 427 1175 l 748 1175 l 748 641 l 641 641 l 641 427 l 748 427 l 748 214 l 641 214 l 641 107 l 534 107 l 534 0 l 107 0 z "},"Z":{"ha":854,"x_min":0,"x_max":748,"o":"m 0 854 l 0 1175 l 107 1175 l 107 1068 l 214 1068 l 214 961 l 107 961 l 107 854 l 0 854 m 0 0 l 0 214 l 107 214 l 107 427 l 214 427 l 214 641 l 107 641 l 107 748 l 320 748 l 320 854 l 427 854 l 427 961 l 534 961 l 534 1068 l 214 1068 l 214 1175 l 748 1175 l 748 961 l 641 961 l 641 854 l 534 854 l 534 748 l 748 748 l 748 641 l 427 641 l 427 534 l 320 534 l 320 320 l 214 320 l 214 107 l 534 107 l 534 214 l 641 214 l 641 320 l 748 320 l 748 107 l 641 107 l 641 0 l 0 0 z "},"[":{"ha":854,"x_min":214,"x_max":641,"o":"m 214 -107 l 214 1282 l 641 1282 l 641 1175 l 427 1175 l 427 0 l 641 0 l 641 -107 l 214 -107 z "},"\\":{"ha":854,"x_min":107,"x_max":748,"o":"m 641 -107 l 641 107 l 534 107 l 534 320 l 427 320 l 427 534 l 320 534 l 320 748 l 214 748 l 214 961 l 107 961 l 107 1282 l 214 1282 l 214 1068 l 320 1068 l 320 854 l 427 854 l 427 641 l 534 641 l 534 427 l 641 427 l 641 214 l 748 214 l 748 -107 l 641 -107 z "},"]":{"ha":854,"x_min":214,"x_max":641,"o":"m 214 -107 l 214 0 l 427 0 l 427 1175 l 214 1175 l 214 1282 l 641 1282 l 641 -107 l 214 -107 z "},"^":{"ha":748,"x_min":107,"x_max":641,"o":"m 107 748 l 107 854 l 214 854 l 214 748 l 107 748 m 534 748 l 534 854 l 641 854 l 641 748 l 534 748 m 214 854 l 214 1068 l 320 1068 l 320 854 l 214 854 m 427 854 l 427 1068 l 534 1068 l 534 854 l 427 854 m 320 1068 l 320 1389 l 427 1389 l 427 1068 l 320 1068 z "},"_":{"ha":854,"x_min":0,"x_max":748,"o":"m 0 -107 l 0 0 l 748 0 l 748 -107 l 0 -107 z "},"`":{"ha":641,"x_min":214,"x_max":534,"o":"m 320 1282 l 320 1389 l 214 1389 l 214 1496 l 427 1496 l 427 1389 l 534 1389 l 534 1282 l 320 1282 z "},"a":{"ha":854,"x_min":0,"x_max":748,"o":"m 107 0 l 107 107 l 0 107 l 0 320 l 107 320 l 107 427 l 214 427 l 214 534 l 427 534 l 427 641 l 107 641 l 107 748 l 534 748 l 534 641 l 641 641 l 641 107 l 748 107 l 748 0 l 534 0 l 534 107 l 427 107 l 427 427 l 320 427 l 320 320 l 214 320 l 214 107 l 427 107 l 427 0 l 107 0 z "},"b":{"ha":854,"x_min":0,"x_max":748,"o":"m 320 0 l 320 107 l 534 107 l 534 641 l 427 641 l 427 748 l 641 748 l 641 641 l 748 641 l 748 107 l 641 107 l 641 0 l 320 0 m 0 0 l 0 107 l 107 107 l 107 1068 l 214 1068 l 214 1175 l 427 1175 l 427 1068 l 320 1068 l 320 641 l 427 641 l 427 534 l 320 534 l 320 107 l 214 107 l 214 0 l 0 0 z "},"c":{"ha":748,"x_min":0,"x_max":641,"o":"m 107 0 l 107 107 l 0 107 l 0 534 l 107 534 l 107 641 l 214 641 l 214 748 l 534 748 l 534 641 l 641 641 l 641 534 l 427 534 l 427 641 l 320 641 l 320 534 l 214 534 l 214 107 l 427 107 l 427 214 l 641 214 l 641 107 l 534 107 l 534 0 l 107 0 z "},"d":{"ha":854,"x_min":0,"x_max":748,"o":"m 107 0 l 107 107 l 0 107 l 0 641 l 107 641 l 107 748 l 320 748 l 320 641 l 214 641 l 214 107 l 427 107 l 427 0 l 107 0 m 534 0 l 534 107 l 427 107 l 427 534 l 320 534 l 320 641 l 427 641 l 427 1068 l 320 1068 l 320 1175 l 534 1175 l 534 1068 l 641 1068 l 641 107 l 748 107 l 748 0 l 534 0 z "},"e":{"ha":748,"x_min":0,"x_max":641,"o":"m 427 427 l 427 641 l 320 641 l 320 534 l 214 534 l 214 427 l 427 427 m 107 0 l 107 107 l 0 107 l 0 534 l 107 534 l 107 641 l 214 641 l 214 748 l 534 748 l 534 641 l 641 641 l 641 427 l 534 427 l 534 320 l 214 320 l 214 107 l 427 107 l 427 214 l 641 214 l 641 107 l 534 107 l 534 0 l 107 0 z "},"f":{"ha":748,"x_min":0,"x_max":641,"o":"m 0 -214 l 0 -107 l 214 -107 l 214 641 l 107 641 l 107 748 l 214 748 l 214 961 l 320 961 l 320 1068 l 641 1068 l 641 961 l 427 961 l 427 748 l 641 748 l 641 641 l 427 641 l 427 -107 l 320 -107 l 320 -214 l 0 -214 z "},"g":{"ha":854,"x_min":0,"x_max":748,"o":"m 107 -214 l 107 -107 l 0 -107 l 0 0 l 214 0 l 214 -107 l 427 -107 l 427 107 l 107 107 l 107 214 l 0 214 l 0 534 l 107 534 l 107 641 l 214 641 l 214 748 l 427 748 l 427 641 l 320 641 l 320 534 l 214 534 l 214 214 l 427 214 l 427 641 l 534 641 l 534 748 l 748 748 l 748 641 l 641 641 l 641 -107 l 534 -107 l 534 -214 l 107 -214 z "},"h":{"ha":748,"x_min":0,"x_max":641,"o":"m 534 0 l 534 107 l 427 107 l 427 641 l 320 641 l 320 748 l 534 748 l 534 641 l 641 641 l 641 0 l 534 0 m 107 0 l 107 107 l 0 107 l 0 1068 l 107 1068 l 107 1175 l 320 1175 l 320 1068 l 214 1068 l 214 641 l 320 641 l 320 534 l 214 534 l 214 0 l 107 0 z "},"i":{"ha":534,"x_min":0,"x_max":427,"o":"m 214 0 l 214 107 l 107 107 l 107 641 l 0 641 l 0 748 l 214 748 l 214 641 l 320 641 l 320 107 l 427 107 l 427 0 l 214 0 m 107 854 l 107 961 l 320 961 l 320 854 l 107 854 z "},"j":{"ha":641,"x_min":0,"x_max":534,"o":"m 0 -107 l 0 0 l 107 0 l 107 -107 l 0 -107 m 107 -214 l 107 -107 l 320 -107 l 320 641 l 214 641 l 214 748 l 427 748 l 427 641 l 534 641 l 534 -107 l 427 -107 l 427 -214 l 107 -214 m 320 854 l 320 961 l 534 961 l 534 854 l 320 854 z "},"k":{"ha":748,"x_min":0,"x_max":641,"o":"m 107 0 l 107 107 l 0 107 l 0 1068 l 107 1068 l 107 1175 l 320 1175 l 320 1068 l 214 1068 l 214 534 l 320 534 l 320 641 l 427 641 l 427 748 l 641 748 l 641 641 l 534 641 l 534 534 l 427 534 l 427 320 l 534 320 l 534 214 l 641 214 l 641 0 l 534 0 l 534 107 l 427 107 l 427 214 l 320 214 l 320 320 l 214 320 l 214 0 l 107 0 z "},"l":{"ha":534,"x_min":0,"x_max":427,"o":"m 214 0 l 214 107 l 107 107 l 107 1068 l 0 1068 l 0 1175 l 214 1175 l 214 1068 l 320 1068 l 320 107 l 427 107 l 427 0 l 214 0 z "},"m":{"ha":854,"x_min":0,"x_max":748,"o":"m 107 0 l 107 107 l 0 107 l 0 534 l 107 534 l 107 641 l 0 641 l 0 748 l 320 748 l 320 641 l 427 641 l 427 748 l 641 748 l 641 641 l 748 641 l 748 0 l 641 0 l 641 107 l 534 107 l 534 534 l 427 534 l 427 320 l 320 320 l 320 534 l 214 534 l 214 0 l 107 0 z "},"n":{"ha":748,"x_min":0,"x_max":641,"o":"m 107 0 l 107 107 l 0 107 l 0 748 l 214 748 l 214 641 l 320 641 l 320 534 l 214 534 l 214 0 l 107 0 m 534 0 l 534 107 l 427 107 l 427 641 l 320 641 l 320 748 l 534 748 l 534 641 l 641 641 l 641 0 l 534 0 z "},"o":{"ha":748,"x_min":0,"x_max":641,"o":"m 427 107 l 427 641 l 320 641 l 320 534 l 214 534 l 214 107 l 427 107 m 107 0 l 107 107 l 0 107 l 0 534 l 107 534 l 107 641 l 214 641 l 214 748 l 534 748 l 534 641 l 641 641 l 641 107 l 534 107 l 534 0 l 107 0 z "},"p":{"ha":854,"x_min":0,"x_max":748,"o":"m 214 -214 l 214 -107 l 107 -107 l 107 641 l 0 641 l 0 748 l 320 748 l 320 641 l 427 641 l 427 534 l 320 534 l 320 320 l 427 320 l 427 214 l 320 214 l 320 -214 l 214 -214 m 427 107 l 427 214 l 534 214 l 534 641 l 427 641 l 427 748 l 641 748 l 641 641 l 748 641 l 748 214 l 641 214 l 641 107 l 427 107 z "},"q":{"ha":854,"x_min":0,"x_max":748,"o":"m 107 107 l 107 214 l 0 214 l 0 641 l 107 641 l 107 748 l 320 748 l 320 641 l 214 641 l 214 214 l 320 214 l 320 107 l 107 107 m 534 -214 l 534 -107 l 427 -107 l 427 214 l 320 214 l 320 320 l 427 320 l 427 534 l 320 534 l 320 641 l 427 641 l 427 748 l 748 748 l 748 641 l 641 641 l 641 -107 l 748 -107 l 748 -214 l 534 -214 z "},"r":{"ha":854,"x_min":0,"x_max":748,"o":"m 107 0 l 107 641 l 0 641 l 0 748 l 214 748 l 214 641 l 320 641 l 320 748 l 641 748 l 641 641 l 748 641 l 748 534 l 534 534 l 534 641 l 427 641 l 427 534 l 320 534 l 320 0 l 107 0 z "},"s":{"ha":748,"x_min":0,"x_max":641,"o":"m 0 0 l 0 214 l 214 214 l 214 107 l 107 107 l 107 0 l 0 0 m 214 0 l 214 107 l 427 107 l 427 320 l 214 320 l 214 427 l 107 427 l 107 641 l 214 641 l 214 748 l 641 748 l 641 534 l 534 534 l 534 641 l 320 641 l 320 427 l 534 427 l 534 320 l 641 320 l 641 107 l 534 107 l 534 0 l 214 0 z "},"t":{"ha":854,"x_min":0,"x_max":748,"o":"m 214 0 l 214 107 l 107 107 l 107 1068 l 0 1068 l 0 1175 l 214 1175 l 214 1068 l 320 1068 l 320 748 l 534 748 l 534 641 l 320 641 l 320 107 l 534 107 l 534 214 l 748 214 l 748 107 l 641 107 l 641 0 l 214 0 z "},"u":{"ha":854,"x_min":0,"x_max":748,"o":"m 107 0 l 107 107 l 0 107 l 0 641 l 107 641 l 107 748 l 214 748 l 214 107 l 427 107 l 427 0 l 107 0 m 534 0 l 534 107 l 427 107 l 427 641 l 534 641 l 534 748 l 641 748 l 641 107 l 748 107 l 748 0 l 534 0 z "},"v":{"ha":748,"x_min":0,"x_max":641,"o":"m 214 0 l 214 107 l 107 107 l 107 214 l 0 214 l 0 641 l 107 641 l 107 748 l 214 748 l 214 214 l 320 214 l 320 107 l 427 107 l 427 0 l 214 0 m 427 107 l 427 641 l 534 641 l 534 748 l 641 748 l 641 214 l 534 214 l 534 107 l 427 107 z "},"w":{"ha":854,"x_min":0,"x_max":748,"o":"m 320 107 l 320 427 l 427 427 l 427 107 l 320 107 m 107 0 l 107 107 l 0 107 l 0 641 l 107 641 l 107 748 l 214 748 l 214 107 l 320 107 l 320 0 l 107 0 m 427 0 l 427 107 l 534 107 l 534 641 l 641 641 l 641 748 l 748 748 l 748 107 l 641 107 l 641 0 l 427 0 z "},"x":{"ha":748,"x_min":0,"x_max":641,"o":"m 0 0 l 0 214 l 107 214 l 107 320 l 214 320 l 214 0 l 0 0 m 427 0 l 427 107 l 320 107 l 320 320 l 214 320 l 214 427 l 107 427 l 107 641 l 0 641 l 0 748 l 214 748 l 214 641 l 320 641 l 320 427 l 427 427 l 427 320 l 534 320 l 534 107 l 641 107 l 641 0 l 427 0 m 427 427 l 427 748 l 641 748 l 641 534 l 534 534 l 534 427 l 427 427 z "},"y":{"ha":748,"x_min":0,"x_max":641,"o":"m 107 -214 l 107 -107 l 0 -107 l 0 0 l 214 0 l 214 -107 l 427 -107 l 427 107 l 107 107 l 107 214 l 0 214 l 0 641 l 107 641 l 107 748 l 214 748 l 214 214 l 427 214 l 427 641 l 534 641 l 534 748 l 641 748 l 641 -107 l 534 -107 l 534 -214 l 107 -214 z "},"z":{"ha":748,"x_min":0,"x_max":641,"o":"m 534 107 l 534 214 l 641 214 l 641 107 l 534 107 m 0 534 l 0 748 l 107 748 l 107 641 l 214 641 l 214 534 l 0 534 m 0 0 l 0 214 l 107 214 l 107 320 l 214 320 l 214 427 l 320 427 l 320 534 l 427 534 l 427 641 l 214 641 l 214 748 l 641 748 l 641 534 l 534 534 l 534 427 l 427 427 l 427 320 l 320 320 l 320 214 l 214 214 l 214 107 l 534 107 l 534 0 l 0 0 z "},"{":{"ha":854,"x_min":107,"x_max":641,"o":"m 320 -107 l 320 0 l 214 0 l 214 534 l 107 534 l 107 641 l 214 641 l 214 1175 l 320 1175 l 320 1282 l 641 1282 l 641 1175 l 427 1175 l 427 641 l 320 641 l 320 534 l 427 534 l 427 0 l 641 0 l 641 -107 l 320 -107 z "},"|":{"ha":534,"x_min":214,"x_max":427,"o":"m 214 0 l 214 1282 l 427 1282 l 427 0 l 214 0 z "},"}":{"ha":748,"x_min":107,"x_max":641,"o":"m 107 -107 l 107 0 l 320 0 l 320 534 l 427 534 l 427 641 l 320 641 l 320 1175 l 107 1175 l 107 1282 l 427 1282 l 427 1175 l 534 1175 l 534 641 l 641 641 l 641 534 l 534 534 l 534 0 l 427 0 l 427 -107 l 107 -107 z "},"~":{"ha":854,"x_min":0,"x_max":748,"o":"m 320 641 l 320 748 l 427 748 l 427 641 l 320 641 m 0 534 l 0 748 l 107 748 l 107 854 l 320 854 l 320 748 l 214 748 l 214 641 l 107 641 l 107 534 l 0 534 m 427 534 l 427 641 l 534 641 l 534 748 l 641 748 l 641 854 l 748 854 l 748 641 l 641 641 l 641 534 l 427 534 z "},"¡":{"ha":641,"x_min":320,"x_max":534,"o":"m 427 -214 l 427 0 l 320 0 l 320 961 l 427 961 l 427 748 l 534 748 l 534 -214 l 427 -214 m 427 1068 l 427 1175 l 320 1175 l 320 1282 l 534 1282 l 534 1068 l 427 1068 z "},"¢":{"ha":854,"x_min":107,"x_max":748,"o":"m 320 0 l 320 214 l 214 214 l 214 320 l 107 320 l 107 748 l 214 748 l 214 854 l 320 854 l 320 961 l 427 961 l 427 1175 l 534 1175 l 534 961 l 641 961 l 641 854 l 748 854 l 748 748 l 534 748 l 534 854 l 427 854 l 427 748 l 320 748 l 320 320 l 534 320 l 534 427 l 748 427 l 748 320 l 641 320 l 641 214 l 427 214 l 427 0 l 320 0 z "},"£":{"ha":961,"x_min":0,"x_max":854,"o":"m 0 0 l 0 214 l 107 214 l 107 427 l 0 427 l 0 534 l 107 534 l 107 641 l 0 641 l 0 748 l 107 748 l 107 961 l 214 961 l 214 1068 l 320 1068 l 320 1175 l 748 1175 l 748 1068 l 854 1068 l 854 961 l 641 961 l 641 1068 l 427 1068 l 427 961 l 320 961 l 320 748 l 641 748 l 641 641 l 320 641 l 320 534 l 641 534 l 641 427 l 320 427 l 320 214 l 534 214 l 534 107 l 854 107 l 854 0 l 427 0 l 427 107 l 214 107 l 214 0 l 0 0 z "},"¤":{"ha":961,"x_min":0,"x_max":854,"o":"m 534 427 l 534 641 l 320 641 l 320 427 l 534 427 m 641 107 l 641 214 l 534 214 l 534 320 l 214 320 l 214 214 l 0 214 l 0 320 l 107 320 l 107 427 l 214 427 l 214 748 l 107 748 l 107 961 l 214 961 l 214 854 l 320 854 l 320 748 l 641 748 l 641 854 l 854 854 l 854 748 l 748 748 l 748 641 l 641 641 l 641 320 l 748 320 l 748 107 l 641 107 z "},"¥":{"ha":961,"x_min":0,"x_max":854,"o":"m 320 0 l 320 320 l 107 320 l 107 427 l 320 427 l 320 534 l 107 534 l 107 641 l 320 641 l 320 748 l 214 748 l 214 854 l 107 854 l 107 961 l 0 961 l 0 1175 l 107 1175 l 107 1068 l 214 1068 l 214 961 l 320 961 l 320 854 l 534 854 l 534 961 l 641 961 l 641 1068 l 748 1068 l 748 1175 l 854 1175 l 854 961 l 748 961 l 748 854 l 641 854 l 641 748 l 534 748 l 534 641 l 748 641 l 748 534 l 534 534 l 534 427 l 748 427 l 748 320 l 534 320 l 534 0 l 320 0 z "},"¦":{"ha":534,"x_min":214,"x_max":427,"o":"m 214 -214 l 214 427 l 320 427 l 320 534 l 427 534 l 427 -107 l 320 -107 l 320 -214 l 214 -214 m 214 748 l 214 1389 l 320 1389 l 320 1496 l 427 1496 l 427 854 l 320 854 l 320 748 l 214 748 z "},"§":{"ha":961,"x_min":0,"x_max":854,"o":"m 320 0 l 320 107 l 214 107 l 214 214 l 427 214 l 427 107 l 641 107 l 641 214 l 748 214 l 748 320 l 320 320 l 320 427 l 534 427 l 534 748 l 641 748 l 641 641 l 748 641 l 748 427 l 854 427 l 854 107 l 748 107 l 748 0 l 320 0 m 214 427 l 214 534 l 107 534 l 107 748 l 0 748 l 0 1068 l 107 1068 l 107 1175 l 534 1175 l 534 1068 l 641 1068 l 641 961 l 427 961 l 427 1068 l 214 1068 l 214 961 l 107 961 l 107 854 l 534 854 l 534 748 l 320 748 l 320 427 l 214 427 z "},"¨":{"ha":854,"x_min":107,"x_max":748,"o":"m 107 1282 l 107 1389 l 320 1389 l 320 1282 l 107 1282 m 534 1282 l 534 1389 l 748 1389 l 748 1282 l 534 1282 z "},"©":{"ha":854,"x_min":0,"x_max":748,"o":"m 214 641 l 214 748 l 534 748 l 534 641 l 214 641 m 107 748 l 107 854 l 214 854 l 214 748 l 107 748 m 534 748 l 534 854 l 641 854 l 641 748 l 534 748 m 320 854 l 320 961 l 534 961 l 534 854 l 320 854 m 214 961 l 214 1068 l 320 1068 l 320 961 l 214 961 m 0 854 l 0 1175 l 107 1175 l 107 854 l 0 854 m 320 1068 l 320 1175 l 534 1175 l 534 1068 l 320 1068 m 641 854 l 641 1175 l 748 1175 l 748 854 l 641 854 m 107 1175 l 107 1282 l 214 1282 l 214 1175 l 107 1175 m 534 1175 l 534 1282 l 641 1282 l 641 1175 l 534 1175 m 214 1282 l 214 1389 l 534 1389 l 534 1282 l 214 1282 z "},"ª":{"ha":854,"x_min":107,"x_max":748,"o":"m 214 748 l 214 854 l 107 854 l 107 961 l 214 961 l 214 1068 l 320 1068 l 320 854 l 427 854 l 427 748 l 214 748 m 534 748 l 534 854 l 427 854 l 427 1068 l 320 1068 l 320 1175 l 427 1175 l 427 1282 l 214 1282 l 214 1389 l 534 1389 l 534 1282 l 641 1282 l 641 854 l 748 854 l 748 748 l 534 748 z "},"«":{"ha":854,"x_min":0,"x_max":748,"o":"m 320 214 l 320 427 l 214 427 l 214 534 l 0 534 l 0 641 l 214 641 l 214 748 l 320 748 l 320 961 l 427 961 l 427 641 l 320 641 l 320 534 l 427 534 l 427 214 l 320 214 m 641 214 l 641 427 l 534 427 l 534 534 l 427 534 l 427 641 l 534 641 l 534 748 l 641 748 l 641 961 l 748 961 l 748 641 l 641 641 l 641 534 l 748 534 l 748 214 l 641 214 z "},"¬":{"ha":854,"x_min":0,"x_max":748,"o":"m 641 214 l 641 320 l 534 320 l 534 534 l 0 534 l 0 641 l 748 641 l 748 214 l 641 214 z "},"­":{"ha":854,"x_min":107,"x_max":748,"o":"m 107 534 l 107 641 l 748 641 l 748 534 l 107 534 z "},"®":{"ha":854,"x_min":0,"x_max":748,"o":"m 214 641 l 214 748 l 534 748 l 534 641 l 214 641 m 107 748 l 107 854 l 214 854 l 214 748 l 107 748 m 534 748 l 534 854 l 641 854 l 641 748 l 534 748 m 427 854 l 427 961 l 534 961 l 534 854 l 427 854 m 0 854 l 0 1175 l 107 1175 l 107 854 l 0 854 m 214 854 l 214 1175 l 427 1175 l 427 961 l 320 961 l 320 854 l 214 854 m 641 854 l 641 1175 l 748 1175 l 748 854 l 641 854 m 107 1175 l 107 1282 l 214 1282 l 214 1175 l 107 1175 m 534 1175 l 534 1282 l 641 1282 l 641 1175 l 534 1175 m 214 1282 l 214 1389 l 534 1389 l 534 1282 l 214 1282 z "},"¯":{"ha":854,"x_min":107,"x_max":748,"o":"m 107 1282 l 107 1389 l 748 1389 l 748 1282 l 107 1282 z "},"°":{"ha":641,"x_min":107,"x_max":534,"o":"m 214 961 l 214 1068 l 427 1068 l 427 961 l 214 961 m 107 1068 l 107 1282 l 214 1282 l 214 1068 l 107 1068 m 427 1068 l 427 1282 l 534 1282 l 534 1068 l 427 1068 m 214 1282 l 214 1389 l 427 1389 l 427 1282 l 214 1282 z "},"±":{"ha":854,"x_min":107,"x_max":748,"o":"m 107 0 l 107 107 l 748 107 l 748 0 l 107 0 m 320 214 l 320 534 l 107 534 l 107 641 l 320 641 l 320 854 l 427 854 l 427 961 l 534 961 l 534 641 l 748 641 l 748 534 l 534 534 l 534 320 l 427 320 l 427 214 l 320 214 z "},"²":{"ha":641,"x_min":107,"x_max":534,"o":"m 107 854 l 107 1068 l 320 1068 l 320 961 l 534 961 l 534 854 l 107 854 m 320 1068 l 320 1282 l 214 1282 l 214 1175 l 107 1175 l 107 1389 l 427 1389 l 427 1282 l 534 1282 l 534 1175 l 427 1175 l 427 1068 l 320 1068 z "},"³":{"ha":641,"x_min":107,"x_max":534,"o":"m 107 854 l 107 1068 l 214 1068 l 214 961 l 427 961 l 427 854 l 107 854 m 427 961 l 427 1068 l 534 1068 l 534 961 l 427 961 m 320 1068 l 320 1282 l 214 1282 l 214 1175 l 107 1175 l 107 1389 l 534 1389 l 534 1175 l 427 1175 l 427 1068 l 320 1068 z "},"´":{"ha":641,"x_min":214,"x_max":534,"o":"m 214 1175 l 214 1282 l 320 1282 l 320 1389 l 534 1389 l 534 1282 l 427 1282 l 427 1175 l 214 1175 z "},"µ":{"ha":961,"x_min":0,"x_max":854,"o":"m 748 0 l 748 107 l 854 107 l 854 0 l 748 0 m 0 -214 l 0 0 l 107 0 l 107 641 l 214 641 l 214 748 l 320 748 l 320 107 l 214 107 l 214 -214 l 0 -214 m 320 0 l 320 107 l 534 107 l 534 641 l 641 641 l 641 748 l 748 748 l 748 107 l 641 107 l 641 0 l 320 0 z "},"¶":{"ha":854,"x_min":0,"x_max":748,"o":"m 641 0 l 641 107 l 748 107 l 748 0 l 641 0 m 320 0 l 320 641 l 107 641 l 107 748 l 0 748 l 0 1068 l 107 1068 l 107 1175 l 214 1175 l 214 748 l 320 748 l 320 1175 l 427 1175 l 427 0 l 320 0 m 214 1175 l 214 1282 l 320 1282 l 320 1175 l 214 1175 m 534 107 l 534 1175 l 427 1175 l 427 1282 l 748 1282 l 748 1175 l 641 1175 l 641 107 l 534 107 z "},"·":{"ha":854,"x_min":320,"x_max":534,"o":"m 320 534 l 320 748 l 534 748 l 534 534 l 320 534 z "},"¸":{"ha":534,"x_min":214,"x_max":427,"o":"m 214 -214 l 214 -107 l 320 -107 l 320 0 l 427 0 l 427 -214 l 214 -214 z "},"¹":{"ha":641,"x_min":107,"x_max":534,"o":"m 107 854 l 107 961 l 214 961 l 214 1175 l 107 1175 l 107 1282 l 214 1282 l 214 1389 l 427 1389 l 427 1068 l 534 1068 l 534 961 l 427 961 l 427 854 l 107 854 z "},"º":{"ha":748,"x_min":107,"x_max":641,"o":"m 214 748 l 214 854 l 107 854 l 107 1175 l 214 1175 l 214 1282 l 320 1282 l 320 854 l 427 854 l 427 1282 l 320 1282 l 320 1389 l 534 1389 l 534 1282 l 641 1282 l 641 854 l 534 854 l 534 748 l 214 748 z "},"»":{"ha":854,"x_min":0,"x_max":748,"o":"m 0 214 l 0 534 l 107 534 l 107 641 l 0 641 l 0 961 l 107 961 l 107 748 l 214 748 l 214 641 l 320 641 l 320 534 l 214 534 l 214 427 l 107 427 l 107 214 l 0 214 m 320 214 l 320 534 l 427 534 l 427 641 l 320 641 l 320 961 l 427 961 l 427 748 l 534 748 l 534 641 l 748 641 l 748 534 l 534 534 l 534 427 l 427 427 l 427 214 l 320 214 z "},"¼":{"ha":854,"x_min":107,"x_max":748,"o":"m 641 -107 l 641 107 l 427 107 l 427 320 l 534 320 l 534 214 l 641 214 l 641 320 l 748 320 l 748 -107 l 641 -107 m 214 214 l 214 427 l 320 427 l 320 214 l 214 214 m 534 320 l 534 427 l 641 427 l 641 320 l 534 320 m 641 427 l 641 534 l 748 534 l 748 427 l 641 427 m 320 427 l 320 641 l 427 641 l 427 427 l 320 427 m 427 641 l 427 854 l 534 854 l 534 641 l 427 641 m 534 854 l 534 1068 l 641 1068 l 641 854 l 534 854 m 641 1068 l 641 1282 l 748 1282 l 748 1068 l 641 1068 m 107 748 l 107 854 l 214 854 l 214 1175 l 107 1175 l 107 1282 l 214 1282 l 214 1389 l 320 1389 l 320 961 l 427 961 l 427 854 l 320 854 l 320 748 l 107 748 z "},"½":{"ha":854,"x_min":107,"x_max":748,"o":"m 641 -107 l 641 0 l 748 0 l 748 -107 l 641 -107 m 427 -107 l 427 107 l 534 107 l 534 214 l 641 214 l 641 0 l 534 0 l 534 -107 l 427 -107 m 214 214 l 214 427 l 320 427 l 320 214 l 214 214 m 427 320 l 427 427 l 534 427 l 534 320 l 427 320 m 641 214 l 641 427 l 534 427 l 534 534 l 748 534 l 748 214 l 641 214 m 320 427 l 320 641 l 427 641 l 427 427 l 320 427 m 427 641 l 427 854 l 534 854 l 534 641 l 427 641 m 534 854 l 534 1068 l 641 1068 l 641 854 l 534 854 m 641 1068 l 641 1282 l 748 1282 l 748 1068 l 641 1068 m 107 748 l 107 854 l 214 854 l 214 1175 l 107 1175 l 107 1282 l 214 1282 l 214 1389 l 320 1389 l 320 961 l 427 961 l 427 854 l 320 854 l 320 748 l 107 748 z "},"¾":{"ha":854,"x_min":107,"x_max":748,"o":"m 641 -107 l 641 107 l 427 107 l 427 320 l 534 320 l 534 214 l 641 214 l 641 320 l 748 320 l 748 -107 l 641 -107 m 214 214 l 214 427 l 320 427 l 320 214 l 214 214 m 534 320 l 534 427 l 641 427 l 641 320 l 534 320 m 641 427 l 641 534 l 748 534 l 748 427 l 641 427 m 320 427 l 320 641 l 427 641 l 427 427 l 320 427 m 214 748 l 214 854 l 320 854 l 320 748 l 214 748 m 427 641 l 427 854 l 534 854 l 534 641 l 427 641 m 107 854 l 107 961 l 214 961 l 214 854 l 107 854 m 320 854 l 320 1068 l 427 1068 l 427 854 l 320 854 m 534 854 l 534 1068 l 641 1068 l 641 854 l 534 854 m 214 1068 l 214 1175 l 320 1175 l 320 1068 l 214 1068 m 641 1068 l 641 1282 l 748 1282 l 748 1068 l 641 1068 m 320 1175 l 320 1282 l 107 1282 l 107 1389 l 427 1389 l 427 1175 l 320 1175 z "},"¿":{"ha":854,"x_min":0,"x_max":748,"o":"m 534 -107 l 534 214 l 427 214 l 427 320 l 641 320 l 641 214 l 748 214 l 748 0 l 641 0 l 641 -107 l 534 -107 m 214 -214 l 214 -107 l 107 -107 l 107 0 l 0 0 l 0 320 l 107 320 l 107 427 l 214 427 l 214 534 l 320 534 l 320 320 l 214 320 l 214 0 l 320 0 l 320 -107 l 534 -107 l 534 -214 l 214 -214 m 320 534 l 320 748 l 427 748 l 427 534 l 320 534 m 214 961 l 214 1068 l 320 1068 l 320 1175 l 427 1175 l 427 961 l 214 961 z "},"À":{"ha":854,"x_min":0,"x_max":748,"o":"m 427 641 l 427 961 l 320 961 l 320 854 l 214 854 l 214 641 l 427 641 m 107 0 l 107 107 l 0 107 l 0 748 l 107 748 l 107 961 l 214 961 l 214 1068 l 427 1068 l 427 1175 l 748 1175 l 748 1068 l 641 1068 l 641 107 l 748 107 l 748 0 l 534 0 l 534 107 l 427 107 l 427 534 l 214 534 l 214 0 l 107 0 m 320 1282 l 320 1389 l 214 1389 l 214 1496 l 427 1496 l 427 1389 l 534 1389 l 534 1282 l 320 1282 z "},"Á":{"ha":854,"x_min":0,"x_max":748,"o":"m 427 641 l 427 961 l 320 961 l 320 854 l 214 854 l 214 641 l 427 641 m 107 0 l 107 107 l 0 107 l 0 748 l 107 748 l 107 961 l 214 961 l 214 1068 l 427 1068 l 427 1175 l 748 1175 l 748 1068 l 641 1068 l 641 107 l 748 107 l 748 0 l 534 0 l 534 107 l 427 107 l 427 534 l 214 534 l 214 0 l 107 0 m 320 1282 l 320 1389 l 427 1389 l 427 1496 l 641 1496 l 641 1389 l 534 1389 l 534 1282 l 320 1282 z "},"Â":{"ha":854,"x_min":0,"x_max":748,"o":"m 427 641 l 427 854 l 320 854 l 320 748 l 214 748 l 214 641 l 427 641 m 107 0 l 107 107 l 0 107 l 0 641 l 107 641 l 107 854 l 214 854 l 214 961 l 427 961 l 427 1068 l 748 1068 l 748 961 l 641 961 l 641 107 l 748 107 l 748 0 l 534 0 l 534 107 l 427 107 l 427 534 l 214 534 l 214 0 l 107 0 m 107 1175 l 107 1282 l 214 1282 l 214 1389 l 320 1389 l 320 1496 l 427 1496 l 427 1389 l 534 1389 l 534 1282 l 641 1282 l 641 1175 l 427 1175 l 427 1282 l 320 1282 l 320 1175 l 107 1175 z "},"Ã":{"ha":854,"x_min":0,"x_max":748,"o":"m 427 641 l 427 961 l 320 961 l 320 854 l 214 854 l 214 641 l 427 641 m 320 1282 l 320 1389 l 427 1389 l 427 1282 l 320 1282 m 0 1175 l 0 1389 l 107 1389 l 107 1496 l 320 1496 l 320 1389 l 214 1389 l 214 1282 l 107 1282 l 107 1175 l 0 1175 m 107 0 l 107 107 l 0 107 l 0 748 l 107 748 l 107 961 l 214 961 l 214 1068 l 427 1068 l 427 1282 l 534 1282 l 534 1389 l 641 1389 l 641 1496 l 748 1496 l 748 1282 l 641 1282 l 641 1175 l 748 1175 l 748 1068 l 641 1068 l 641 107 l 748 107 l 748 0 l 534 0 l 534 107 l 427 107 l 427 534 l 214 534 l 214 0 l 107 0 z "},"Ä":{"ha":854,"x_min":0,"x_max":748,"o":"m 427 641 l 427 961 l 320 961 l 320 854 l 214 854 l 214 641 l 427 641 m 107 0 l 107 107 l 0 107 l 0 748 l 107 748 l 107 961 l 214 961 l 214 1068 l 427 1068 l 427 1175 l 748 1175 l 748 1068 l 641 1068 l 641 107 l 748 107 l 748 0 l 534 0 l 534 107 l 427 107 l 427 534 l 214 534 l 214 0 l 107 0 m 107 1282 l 107 1389 l 320 1389 l 320 1282 l 107 1282 m 534 1282 l 534 1389 l 748 1389 l 748 1282 l 534 1282 z "},"Å":{"ha":854,"x_min":0,"x_max":748,"o":"m 427 641 l 427 854 l 320 854 l 320 748 l 214 748 l 214 641 l 427 641 m 107 0 l 107 107 l 0 107 l 0 641 l 107 641 l 107 854 l 214 854 l 214 961 l 427 961 l 427 1068 l 320 1068 l 320 1175 l 534 1175 l 534 1068 l 748 1068 l 748 961 l 641 961 l 641 107 l 748 107 l 748 0 l 534 0 l 534 107 l 427 107 l 427 534 l 214 534 l 214 0 l 107 0 m 214 1175 l 214 1389 l 320 1389 l 320 1175 l 214 1175 m 534 1175 l 534 1389 l 641 1389 l 641 1175 l 534 1175 m 320 1389 l 320 1496 l 534 1496 l 534 1389 l 320 1389 z "},"Æ":{"ha":961,"x_min":0,"x_max":854,"o":"m 320 641 l 320 854 l 214 854 l 214 641 l 320 641 m 107 0 l 107 107 l 0 107 l 0 748 l 107 748 l 107 961 l 214 961 l 214 1068 l 320 1068 l 320 1175 l 427 1175 l 427 1068 l 534 1068 l 534 748 l 748 748 l 748 641 l 641 641 l 641 534 l 534 534 l 534 107 l 641 107 l 641 214 l 854 214 l 854 107 l 748 107 l 748 0 l 427 0 l 427 107 l 320 107 l 320 534 l 214 534 l 214 0 l 107 0 m 641 961 l 641 1068 l 534 1068 l 534 1175 l 748 1175 l 748 1068 l 854 1068 l 854 961 l 641 961 z "},"Ç":{"ha":854,"x_min":0,"x_max":748,"o":"m 534 107 l 534 320 l 748 320 l 748 214 l 641 214 l 641 107 l 534 107 m 214 -214 l 214 -107 l 320 -107 l 320 0 l 214 0 l 214 107 l 107 107 l 107 214 l 0 214 l 0 961 l 107 961 l 107 1068 l 214 1068 l 214 1175 l 534 1175 l 534 1068 l 320 1068 l 320 961 l 214 961 l 214 214 l 320 214 l 320 107 l 534 107 l 534 0 l 427 0 l 427 -214 l 214 -214 m 641 748 l 641 961 l 534 961 l 534 1068 l 641 1068 l 641 1175 l 748 1175 l 748 748 l 641 748 z "},"È":{"ha":854,"x_min":0,"x_max":748,"o":"m 0 0 l 0 107 l 107 107 l 107 748 l 0 748 l 0 854 l 107 854 l 107 1068 l 0 1068 l 0 1175 l 641 1175 l 641 1068 l 748 1068 l 748 961 l 534 961 l 534 1068 l 320 1068 l 320 748 l 534 748 l 534 641 l 320 641 l 320 107 l 534 107 l 534 214 l 641 214 l 641 320 l 748 320 l 748 107 l 641 107 l 641 0 l 0 0 m 214 1282 l 214 1389 l 107 1389 l 107 1496 l 320 1496 l 320 1389 l 427 1389 l 427 1282 l 214 1282 z "},"É":{"ha":854,"x_min":0,"x_max":748,"o":"m 0 0 l 0 107 l 107 107 l 107 748 l 0 748 l 0 854 l 107 854 l 107 1068 l 0 1068 l 0 1175 l 641 1175 l 641 1068 l 748 1068 l 748 961 l 534 961 l 534 1068 l 320 1068 l 320 748 l 534 748 l 534 641 l 320 641 l 320 107 l 534 107 l 534 214 l 641 214 l 641 320 l 748 320 l 748 107 l 641 107 l 641 0 l 0 0 m 214 1282 l 214 1389 l 320 1389 l 320 1496 l 534 1496 l 534 1389 l 427 1389 l 427 1282 l 214 1282 z "},"Ê":{"ha":854,"x_min":0,"x_max":748,"o":"m 0 0 l 0 107 l 107 107 l 107 748 l 0 748 l 0 854 l 107 854 l 107 961 l 0 961 l 0 1068 l 641 1068 l 641 961 l 748 961 l 748 854 l 534 854 l 534 961 l 320 961 l 320 748 l 534 748 l 534 641 l 320 641 l 320 107 l 534 107 l 534 214 l 641 214 l 641 320 l 748 320 l 748 107 l 641 107 l 641 0 l 0 0 m 107 1175 l 107 1282 l 214 1282 l 214 1389 l 320 1389 l 320 1496 l 427 1496 l 427 1389 l 534 1389 l 534 1282 l 641 1282 l 641 1175 l 427 1175 l 427 1282 l 320 1282 l 320 1175 l 107 1175 z "},"Ë":{"ha":854,"x_min":0,"x_max":748,"o":"m 0 0 l 0 107 l 107 107 l 107 748 l 0 748 l 0 854 l 107 854 l 107 1068 l 0 1068 l 0 1175 l 641 1175 l 641 1068 l 748 1068 l 748 961 l 534 961 l 534 1068 l 320 1068 l 320 748 l 534 748 l 534 641 l 320 641 l 320 107 l 534 107 l 534 214 l 641 214 l 641 320 l 748 320 l 748 107 l 641 107 l 641 0 l 0 0 m 107 1282 l 107 1389 l 320 1389 l 320 1282 l 107 1282 m 534 1282 l 534 1389 l 748 1389 l 748 1282 l 534 1282 z "},"Ì":{"ha":641,"x_min":0,"x_max":534,"o":"m 0 961 l 0 1068 l 107 1068 l 107 961 l 0 961 m 107 0 l 107 107 l 214 107 l 214 1068 l 107 1068 l 107 1175 l 534 1175 l 534 1068 l 427 1068 l 427 214 l 534 214 l 534 107 l 320 107 l 320 0 l 107 0 m 214 1282 l 214 1389 l 107 1389 l 107 1496 l 320 1496 l 320 1389 l 427 1389 l 427 1282 l 214 1282 z "},"Í":{"ha":641,"x_min":0,"x_max":534,"o":"m 0 961 l 0 1068 l 107 1068 l 107 961 l 0 961 m 107 0 l 107 107 l 214 107 l 214 1068 l 107 1068 l 107 1175 l 534 1175 l 534 1068 l 427 1068 l 427 214 l 534 214 l 534 107 l 320 107 l 320 0 l 107 0 m 214 1282 l 214 1389 l 320 1389 l 320 1496 l 534 1496 l 534 1389 l 427 1389 l 427 1282 l 214 1282 z "},"Î":{"ha":641,"x_min":0,"x_max":534,"o":"m 0 854 l 0 961 l 107 961 l 107 854 l 0 854 m 107 0 l 107 107 l 214 107 l 214 961 l 107 961 l 107 1068 l 534 1068 l 534 961 l 427 961 l 427 214 l 534 214 l 534 107 l 320 107 l 320 0 l 107 0 m 0 1175 l 0 1282 l 107 1282 l 107 1389 l 214 1389 l 214 1496 l 320 1496 l 320 1389 l 427 1389 l 427 1282 l 534 1282 l 534 1175 l 320 1175 l 320 1282 l 214 1282 l 214 1175 l 0 1175 z "},"Ï":{"ha":748,"x_min":0,"x_max":641,"o":"m 0 961 l 0 1068 l 107 1068 l 107 961 l 0 961 m 107 0 l 107 107 l 214 107 l 214 1068 l 107 1068 l 107 1175 l 534 1175 l 534 1068 l 427 1068 l 427 214 l 534 214 l 534 107 l 320 107 l 320 0 l 107 0 m 0 1282 l 0 1389 l 214 1389 l 214 1282 l 0 1282 m 427 1282 l 427 1389 l 641 1389 l 641 1282 l 427 1282 z "},"Ð":{"ha":854,"x_min":0,"x_max":748,"o":"m 0 0 l 0 107 l 107 107 l 107 641 l 0 641 l 0 748 l 107 748 l 107 1068 l 0 1068 l 0 1175 l 534 1175 l 534 1068 l 641 1068 l 641 961 l 748 961 l 748 214 l 641 214 l 641 107 l 534 107 l 534 961 l 427 961 l 427 1068 l 320 1068 l 320 641 l 427 641 l 427 534 l 320 534 l 320 107 l 534 107 l 534 0 l 0 0 z "},"Ñ":{"ha":854,"x_min":0,"x_max":748,"o":"m 320 1282 l 320 1389 l 427 1389 l 427 1282 l 320 1282 m 214 0 l 214 107 l 107 107 l 107 1068 l 0 1068 l 0 1389 l 107 1389 l 107 1496 l 320 1496 l 320 1389 l 214 1389 l 214 1282 l 107 1282 l 107 1175 l 320 1175 l 320 961 l 427 961 l 427 748 l 534 748 l 534 1175 l 427 1175 l 427 1282 l 534 1282 l 534 1389 l 641 1389 l 641 1496 l 748 1496 l 748 1282 l 641 1282 l 641 1068 l 748 1068 l 748 0 l 641 0 l 641 107 l 534 107 l 534 427 l 427 427 l 427 641 l 320 641 l 320 0 l 214 0 z "},"Ò":{"ha":854,"x_min":0,"x_max":748,"o":"m 214 0 l 214 107 l 107 107 l 107 214 l 0 214 l 0 961 l 107 961 l 107 1068 l 214 1068 l 214 214 l 320 214 l 320 107 l 534 107 l 534 0 l 214 0 m 534 107 l 534 961 l 427 961 l 427 1068 l 214 1068 l 214 1175 l 534 1175 l 534 1068 l 641 1068 l 641 961 l 748 961 l 748 214 l 641 214 l 641 107 l 534 107 m 214 1282 l 214 1389 l 107 1389 l 107 1496 l 320 1496 l 320 1389 l 427 1389 l 427 1282 l 214 1282 z "},"Ó":{"ha":854,"x_min":0,"x_max":748,"o":"m 214 0 l 214 107 l 107 107 l 107 214 l 0 214 l 0 961 l 107 961 l 107 1068 l 214 1068 l 214 214 l 320 214 l 320 107 l 534 107 l 534 0 l 214 0 m 534 107 l 534 961 l 427 961 l 427 1068 l 214 1068 l 214 1175 l 534 1175 l 534 1068 l 641 1068 l 641 961 l 748 961 l 748 214 l 641 214 l 641 107 l 534 107 m 214 1282 l 214 1389 l 320 1389 l 320 1496 l 534 1496 l 534 1389 l 427 1389 l 427 1282 l 214 1282 z "},"Ô":{"ha":854,"x_min":0,"x_max":748,"o":"m 214 0 l 214 107 l 107 107 l 107 214 l 0 214 l 0 854 l 107 854 l 107 961 l 214 961 l 214 214 l 320 214 l 320 107 l 534 107 l 534 0 l 214 0 m 534 107 l 534 854 l 427 854 l 427 961 l 214 961 l 214 1068 l 534 1068 l 534 961 l 641 961 l 641 854 l 748 854 l 748 214 l 641 214 l 641 107 l 534 107 m 107 1175 l 107 1282 l 214 1282 l 214 1389 l 320 1389 l 320 1496 l 427 1496 l 427 1389 l 534 1389 l 534 1282 l 641 1282 l 641 1175 l 427 1175 l 427 1282 l 320 1282 l 320 1175 l 107 1175 z "},"Õ":{"ha":854,"x_min":0,"x_max":748,"o":"m 214 0 l 214 107 l 107 107 l 107 214 l 0 214 l 0 961 l 107 961 l 107 1068 l 214 1068 l 214 214 l 320 214 l 320 107 l 534 107 l 534 0 l 214 0 m 320 1282 l 320 1389 l 427 1389 l 427 1282 l 320 1282 m 0 1175 l 0 1389 l 107 1389 l 107 1496 l 320 1496 l 320 1389 l 214 1389 l 214 1282 l 107 1282 l 107 1175 l 0 1175 m 534 107 l 534 961 l 427 961 l 427 1068 l 214 1068 l 214 1175 l 427 1175 l 427 1282 l 534 1282 l 534 1389 l 641 1389 l 641 1496 l 748 1496 l 748 1282 l 641 1282 l 641 1175 l 534 1175 l 534 1068 l 641 1068 l 641 961 l 748 961 l 748 214 l 641 214 l 641 107 l 534 107 z "},"Ö":{"ha":854,"x_min":0,"x_max":748,"o":"m 214 0 l 214 107 l 107 107 l 107 214 l 0 214 l 0 961 l 107 961 l 107 1068 l 214 1068 l 214 214 l 320 214 l 320 107 l 534 107 l 534 0 l 214 0 m 534 107 l 534 961 l 427 961 l 427 1068 l 214 1068 l 214 1175 l 534 1175 l 534 1068 l 641 1068 l 641 961 l 748 961 l 748 214 l 641 214 l 641 107 l 534 107 m 107 1282 l 107 1389 l 320 1389 l 320 1282 l 107 1282 m 534 1282 l 534 1389 l 748 1389 l 748 1282 l 534 1282 z "},"×":{"ha":854,"x_min":107,"x_max":748,"o":"m 107 107 l 107 214 l 214 214 l 214 320 l 320 320 l 320 107 l 107 107 m 534 107 l 534 320 l 641 320 l 641 214 l 748 214 l 748 107 l 534 107 m 320 320 l 320 534 l 534 534 l 534 320 l 320 320 m 214 534 l 214 641 l 107 641 l 107 748 l 320 748 l 320 534 l 214 534 m 534 534 l 534 748 l 748 748 l 748 641 l 641 641 l 641 534 l 534 534 z "},"Ø":{"ha":854,"x_min":0,"x_max":748,"o":"m 0 -107 l 0 107 l 107 107 l 107 -107 l 0 -107 m 320 427 l 320 748 l 427 748 l 427 427 l 320 427 m 214 0 l 214 107 l 107 107 l 107 214 l 0 214 l 0 961 l 107 961 l 107 1068 l 214 1068 l 214 427 l 320 427 l 320 107 l 534 107 l 534 0 l 214 0 m 534 107 l 534 748 l 427 748 l 427 1068 l 214 1068 l 214 1175 l 534 1175 l 534 1068 l 641 1068 l 641 961 l 748 961 l 748 214 l 641 214 l 641 107 l 534 107 m 641 1068 l 641 1282 l 748 1282 l 748 1068 l 641 1068 z "},"Ù":{"ha":854,"x_min":0,"x_max":748,"o":"m 214 0 l 214 107 l 107 107 l 107 214 l 0 214 l 0 854 l 107 854 l 107 1068 l 0 1068 l 0 1175 l 320 1175 l 320 854 l 214 854 l 214 214 l 320 214 l 320 107 l 534 107 l 534 0 l 214 0 m 534 107 l 534 1175 l 641 1175 l 641 1068 l 748 1068 l 748 214 l 641 214 l 641 107 l 534 107 m 320 1282 l 320 1389 l 214 1389 l 214 1496 l 427 1496 l 427 1389 l 534 1389 l 534 1282 l 320 1282 z "},"Ú":{"ha":854,"x_min":0,"x_max":748,"o":"m 214 0 l 214 107 l 107 107 l 107 214 l 0 214 l 0 854 l 107 854 l 107 1068 l 0 1068 l 0 1175 l 320 1175 l 320 854 l 214 854 l 214 214 l 320 214 l 320 107 l 534 107 l 534 0 l 214 0 m 534 107 l 534 1175 l 641 1175 l 641 1068 l 748 1068 l 748 214 l 641 214 l 641 107 l 534 107 m 320 1282 l 320 1389 l 427 1389 l 427 1496 l 641 1496 l 641 1389 l 534 1389 l 534 1282 l 320 1282 z "},"Û":{"ha":854,"x_min":0,"x_max":748,"o":"m 214 0 l 214 107 l 107 107 l 107 214 l 0 214 l 0 748 l 107 748 l 107 961 l 0 961 l 0 1068 l 320 1068 l 320 748 l 214 748 l 214 214 l 320 214 l 320 107 l 534 107 l 534 0 l 214 0 m 534 107 l 534 1068 l 641 1068 l 641 961 l 748 961 l 748 214 l 641 214 l 641 107 l 534 107 m 107 1175 l 107 1282 l 214 1282 l 214 1389 l 320 1389 l 320 1496 l 427 1496 l 427 1389 l 534 1389 l 534 1282 l 641 1282 l 641 1175 l 427 1175 l 427 1282 l 320 1282 l 320 1175 l 107 1175 z "},"Ü":{"ha":854,"x_min":0,"x_max":748,"o":"m 214 0 l 214 107 l 107 107 l 107 214 l 0 214 l 0 854 l 107 854 l 107 1068 l 0 1068 l 0 1175 l 320 1175 l 320 854 l 214 854 l 214 214 l 320 214 l 320 107 l 534 107 l 534 0 l 214 0 m 534 107 l 534 1175 l 641 1175 l 641 1068 l 748 1068 l 748 214 l 641 214 l 641 107 l 534 107 m 107 1282 l 107 1389 l 320 1389 l 320 1282 l 107 1282 m 534 1282 l 534 1389 l 748 1389 l 748 1282 l 534 1282 z "},"Ý":{"ha":854,"x_min":0,"x_max":748,"o":"m 107 0 l 107 107 l 0 107 l 0 214 l 214 214 l 214 107 l 427 107 l 427 214 l 534 214 l 534 427 l 427 427 l 427 534 l 214 534 l 214 641 l 107 641 l 107 1068 l 0 1068 l 0 1175 l 320 1175 l 320 641 l 534 641 l 534 1068 l 427 1068 l 427 1175 l 748 1175 l 748 641 l 641 641 l 641 427 l 748 427 l 748 214 l 641 214 l 641 107 l 534 107 l 534 0 l 107 0 m 320 1282 l 320 1389 l 427 1389 l 427 1496 l 641 1496 l 641 1389 l 534 1389 l 534 1282 l 320 1282 z "},"Þ":{"ha":854,"x_min":0,"x_max":748,"o":"m 320 214 l 320 320 l 534 320 l 534 214 l 320 214 m 534 320 l 534 854 l 427 854 l 427 961 l 320 961 l 320 1068 l 534 1068 l 534 961 l 641 961 l 641 854 l 748 854 l 748 427 l 641 427 l 641 320 l 534 320 m 0 -107 l 0 1175 l 107 1175 l 107 1282 l 214 1282 l 214 961 l 320 961 l 320 854 l 214 854 l 214 427 l 320 427 l 320 320 l 214 320 l 214 0 l 107 0 l 107 -107 l 0 -107 z "},"ß":{"ha":961,"x_min":0,"x_max":854,"o":"m 427 0 l 427 107 l 641 107 l 641 0 l 427 0 m 0 -107 l 0 0 l 107 0 l 107 961 l 214 961 l 214 1068 l 320 1068 l 320 0 l 214 0 l 214 -107 l 0 -107 m 641 107 l 641 534 l 534 534 l 534 641 l 427 641 l 427 748 l 534 748 l 534 1068 l 320 1068 l 320 1175 l 641 1175 l 641 1068 l 748 1068 l 748 748 l 641 748 l 641 641 l 748 641 l 748 534 l 854 534 l 854 214 l 748 214 l 748 107 l 641 107 z "},"à":{"ha":854,"x_min":0,"x_max":748,"o":"m 107 0 l 107 107 l 0 107 l 0 320 l 107 320 l 107 427 l 214 427 l 214 534 l 427 534 l 427 641 l 107 641 l 107 748 l 534 748 l 534 641 l 641 641 l 641 107 l 748 107 l 748 0 l 534 0 l 534 107 l 427 107 l 427 427 l 320 427 l 320 320 l 214 320 l 214 107 l 427 107 l 427 0 l 107 0 m 214 854 l 214 961 l 107 961 l 107 1068 l 320 1068 l 320 961 l 427 961 l 427 854 l 214 854 z "},"á":{"ha":854,"x_min":0,"x_max":748,"o":"m 107 0 l 107 107 l 0 107 l 0 320 l 107 320 l 107 427 l 214 427 l 214 534 l 427 534 l 427 641 l 107 641 l 107 748 l 534 748 l 534 641 l 641 641 l 641 107 l 748 107 l 748 0 l 534 0 l 534 107 l 427 107 l 427 427 l 320 427 l 320 320 l 214 320 l 214 107 l 427 107 l 427 0 l 107 0 m 214 854 l 214 961 l 320 961 l 320 1068 l 534 1068 l 534 961 l 427 961 l 427 854 l 214 854 z "},"â":{"ha":854,"x_min":0,"x_max":748,"o":"m 107 0 l 107 107 l 0 107 l 0 320 l 107 320 l 107 427 l 214 427 l 214 534 l 427 534 l 427 641 l 107 641 l 107 748 l 534 748 l 534 641 l 641 641 l 641 107 l 748 107 l 748 0 l 534 0 l 534 107 l 427 107 l 427 427 l 320 427 l 320 320 l 214 320 l 214 107 l 427 107 l 427 0 l 107 0 m 107 854 l 107 961 l 214 961 l 214 1068 l 320 1068 l 320 1175 l 427 1175 l 427 1068 l 534 1068 l 534 961 l 641 961 l 641 854 l 427 854 l 427 961 l 320 961 l 320 854 l 107 854 z "},"ã":{"ha":854,"x_min":0,"x_max":748,"o":"m 107 0 l 107 107 l 0 107 l 0 320 l 107 320 l 107 427 l 214 427 l 214 534 l 427 534 l 427 641 l 107 641 l 107 748 l 534 748 l 534 641 l 641 641 l 641 107 l 748 107 l 748 0 l 534 0 l 534 107 l 427 107 l 427 427 l 320 427 l 320 320 l 214 320 l 214 107 l 427 107 l 427 0 l 107 0 m 320 961 l 320 1068 l 427 1068 l 427 961 l 320 961 m 0 854 l 0 1068 l 107 1068 l 107 1175 l 320 1175 l 320 1068 l 214 1068 l 214 961 l 107 961 l 107 854 l 0 854 m 427 854 l 427 961 l 534 961 l 534 1068 l 641 1068 l 641 1175 l 748 1175 l 748 961 l 641 961 l 641 854 l 427 854 z "},"ä":{"ha":854,"x_min":0,"x_max":748,"o":"m 107 0 l 107 107 l 0 107 l 0 320 l 107 320 l 107 427 l 214 427 l 214 534 l 427 534 l 427 641 l 107 641 l 107 748 l 534 748 l 534 641 l 641 641 l 641 107 l 748 107 l 748 0 l 534 0 l 534 107 l 427 107 l 427 427 l 320 427 l 320 320 l 214 320 l 214 107 l 427 107 l 427 0 l 107 0 m 0 854 l 0 961 l 214 961 l 214 854 l 0 854 m 427 854 l 427 961 l 641 961 l 641 854 l 427 854 z "},"å":{"ha":854,"x_min":0,"x_max":748,"o":"m 107 0 l 107 107 l 0 107 l 0 320 l 107 320 l 107 427 l 214 427 l 214 534 l 427 534 l 427 641 l 107 641 l 107 748 l 534 748 l 534 641 l 641 641 l 641 107 l 748 107 l 748 0 l 534 0 l 534 107 l 427 107 l 427 427 l 320 427 l 320 320 l 214 320 l 214 107 l 427 107 l 427 0 l 107 0 m 214 854 l 214 961 l 427 961 l 427 854 l 214 854 m 107 961 l 107 1175 l 214 1175 l 214 961 l 107 961 m 427 961 l 427 1175 l 534 1175 l 534 961 l 427 961 m 214 1175 l 214 1282 l 427 1282 l 427 1175 l 214 1175 z "},"æ":{"ha":961,"x_min":0,"x_max":854,"o":"m 748 107 l 748 214 l 854 214 l 854 107 l 748 107 m 107 0 l 107 107 l 0 107 l 0 320 l 107 320 l 107 427 l 214 427 l 214 534 l 320 534 l 320 641 l 107 641 l 107 748 l 427 748 l 427 641 l 534 641 l 534 427 l 641 427 l 641 641 l 534 641 l 534 748 l 748 748 l 748 641 l 854 641 l 854 320 l 534 320 l 534 107 l 748 107 l 748 0 l 427 0 l 427 107 l 320 107 l 320 320 l 214 320 l 214 107 l 320 107 l 320 0 l 107 0 z "},"ç":{"ha":748,"x_min":0,"x_max":641,"o":"m 214 -214 l 214 -107 l 320 -107 l 320 0 l 107 0 l 107 107 l 0 107 l 0 534 l 107 534 l 107 641 l 214 641 l 214 748 l 534 748 l 534 641 l 641 641 l 641 534 l 427 534 l 427 641 l 320 641 l 320 534 l 214 534 l 214 107 l 427 107 l 427 214 l 641 214 l 641 107 l 534 107 l 534 0 l 427 0 l 427 -214 l 214 -214 z "},"è":{"ha":748,"x_min":0,"x_max":641,"o":"m 427 427 l 427 641 l 320 641 l 320 534 l 214 534 l 214 427 l 427 427 m 107 0 l 107 107 l 0 107 l 0 534 l 107 534 l 107 641 l 214 641 l 214 748 l 534 748 l 534 641 l 641 641 l 641 427 l 534 427 l 534 320 l 214 320 l 214 107 l 427 107 l 427 214 l 641 214 l 641 107 l 534 107 l 534 0 l 107 0 m 214 854 l 214 961 l 107 961 l 107 1068 l 320 1068 l 320 961 l 427 961 l 427 854 l 214 854 z "},"é":{"ha":748,"x_min":0,"x_max":641,"o":"m 427 427 l 427 641 l 320 641 l 320 534 l 214 534 l 214 427 l 427 427 m 107 0 l 107 107 l 0 107 l 0 534 l 107 534 l 107 641 l 214 641 l 214 748 l 534 748 l 534 641 l 641 641 l 641 427 l 534 427 l 534 320 l 214 320 l 214 107 l 427 107 l 427 214 l 641 214 l 641 107 l 534 107 l 534 0 l 107 0 m 214 854 l 214 961 l 320 961 l 320 1068 l 534 1068 l 534 961 l 427 961 l 427 854 l 214 854 z "},"ê":{"ha":748,"x_min":0,"x_max":641,"o":"m 427 427 l 427 641 l 320 641 l 320 534 l 214 534 l 214 427 l 427 427 m 107 0 l 107 107 l 0 107 l 0 534 l 107 534 l 107 641 l 214 641 l 214 748 l 534 748 l 534 641 l 641 641 l 641 427 l 534 427 l 534 320 l 214 320 l 214 107 l 427 107 l 427 214 l 641 214 l 641 107 l 534 107 l 534 0 l 107 0 m 107 854 l 107 961 l 214 961 l 214 1068 l 320 1068 l 320 1175 l 427 1175 l 427 1068 l 534 1068 l 534 961 l 641 961 l 641 854 l 427 854 l 427 961 l 320 961 l 320 854 l 107 854 z "},"ë":{"ha":748,"x_min":0,"x_max":641,"o":"m 427 427 l 427 641 l 320 641 l 320 534 l 214 534 l 214 427 l 427 427 m 107 0 l 107 107 l 0 107 l 0 534 l 107 534 l 107 641 l 214 641 l 214 748 l 534 748 l 534 641 l 641 641 l 641 427 l 534 427 l 534 320 l 214 320 l 214 107 l 427 107 l 427 214 l 641 214 l 641 107 l 534 107 l 534 0 l 107 0 m 0 854 l 0 961 l 214 961 l 214 854 l 0 854 m 427 854 l 427 961 l 641 961 l 641 854 l 427 854 z "},"ì":{"ha":534,"x_min":0,"x_max":427,"o":"m 214 0 l 214 107 l 107 107 l 107 641 l 0 641 l 0 748 l 214 748 l 214 641 l 320 641 l 320 107 l 427 107 l 427 0 l 214 0 m 107 854 l 107 961 l 0 961 l 0 1068 l 214 1068 l 214 961 l 320 961 l 320 854 l 107 854 z "},"í":{"ha":534,"x_min":0,"x_max":427,"o":"m 214 0 l 214 107 l 107 107 l 107 641 l 0 641 l 0 748 l 214 748 l 214 641 l 320 641 l 320 107 l 427 107 l 427 0 l 214 0 m 107 854 l 107 961 l 214 961 l 214 1068 l 427 1068 l 427 961 l 320 961 l 320 854 l 107 854 z "},"î":{"ha":641,"x_min":0,"x_max":534,"o":"m 320 0 l 320 107 l 214 107 l 214 641 l 107 641 l 107 748 l 320 748 l 320 641 l 427 641 l 427 107 l 534 107 l 534 0 l 320 0 m 0 854 l 0 961 l 107 961 l 107 1068 l 214 1068 l 214 1175 l 320 1175 l 320 1068 l 427 1068 l 427 961 l 534 961 l 534 854 l 320 854 l 320 961 l 214 961 l 214 854 l 0 854 z "},"ï":{"ha":748,"x_min":0,"x_max":641,"o":"m 320 0 l 320 107 l 214 107 l 214 641 l 107 641 l 107 748 l 320 748 l 320 641 l 427 641 l 427 107 l 534 107 l 534 0 l 320 0 m 0 854 l 0 961 l 214 961 l 214 854 l 0 854 m 427 854 l 427 961 l 641 961 l 641 854 l 427 854 z "},"ð":{"ha":854,"x_min":0,"x_max":748,"o":"m 534 107 l 534 641 l 427 641 l 427 534 l 320 534 l 320 107 l 534 107 m 214 0 l 214 107 l 107 107 l 107 534 l 214 534 l 214 641 l 320 641 l 320 854 l 214 854 l 214 748 l 107 748 l 107 961 l 0 961 l 0 1068 l 214 1068 l 214 1175 l 320 1175 l 320 961 l 427 961 l 427 854 l 534 854 l 534 748 l 641 748 l 641 641 l 748 641 l 748 107 l 641 107 l 641 0 l 214 0 z "},"ñ":{"ha":854,"x_min":0,"x_max":748,"o":"m 214 0 l 214 107 l 107 107 l 107 748 l 320 748 l 320 641 l 427 641 l 427 534 l 320 534 l 320 0 l 214 0 m 641 0 l 641 107 l 534 107 l 534 641 l 427 641 l 427 748 l 641 748 l 641 641 l 748 641 l 748 0 l 641 0 m 320 961 l 320 1068 l 427 1068 l 427 961 l 320 961 m 0 854 l 0 1068 l 107 1068 l 107 1175 l 320 1175 l 320 1068 l 214 1068 l 214 961 l 107 961 l 107 854 l 0 854 m 427 854 l 427 961 l 534 961 l 534 1068 l 641 1068 l 641 1175 l 748 1175 l 748 961 l 641 961 l 641 854 l 427 854 z "},"ò":{"ha":748,"x_min":0,"x_max":641,"o":"m 427 107 l 427 641 l 320 641 l 320 534 l 214 534 l 214 107 l 427 107 m 107 0 l 107 107 l 0 107 l 0 534 l 107 534 l 107 641 l 214 641 l 214 748 l 534 748 l 534 641 l 641 641 l 641 107 l 534 107 l 534 0 l 107 0 m 214 854 l 214 961 l 107 961 l 107 1068 l 320 1068 l 320 961 l 427 961 l 427 854 l 214 854 z "},"ó":{"ha":748,"x_min":0,"x_max":641,"o":"m 427 107 l 427 641 l 320 641 l 320 534 l 214 534 l 214 107 l 427 107 m 107 0 l 107 107 l 0 107 l 0 534 l 107 534 l 107 641 l 214 641 l 214 748 l 534 748 l 534 641 l 641 641 l 641 107 l 534 107 l 534 0 l 107 0 m 214 854 l 214 961 l 320 961 l 320 1068 l 534 1068 l 534 961 l 427 961 l 427 854 l 214 854 z "},"ô":{"ha":748,"x_min":0,"x_max":641,"o":"m 427 107 l 427 641 l 320 641 l 320 534 l 214 534 l 214 107 l 427 107 m 107 0 l 107 107 l 0 107 l 0 534 l 107 534 l 107 641 l 214 641 l 214 748 l 534 748 l 534 641 l 641 641 l 641 107 l 534 107 l 534 0 l 107 0 m 107 854 l 107 961 l 214 961 l 214 1068 l 320 1068 l 320 1175 l 427 1175 l 427 1068 l 534 1068 l 534 961 l 641 961 l 641 854 l 427 854 l 427 961 l 320 961 l 320 854 l 107 854 z "},"õ":{"ha":854,"x_min":0,"x_max":748,"o":"m 534 107 l 534 641 l 427 641 l 427 534 l 320 534 l 320 107 l 534 107 m 214 0 l 214 107 l 107 107 l 107 534 l 214 534 l 214 641 l 320 641 l 320 748 l 641 748 l 641 641 l 748 641 l 748 107 l 641 107 l 641 0 l 214 0 m 320 961 l 320 1068 l 427 1068 l 427 961 l 320 961 m 0 854 l 0 1068 l 107 1068 l 107 1175 l 320 1175 l 320 1068 l 214 1068 l 214 961 l 107 961 l 107 854 l 0 854 m 427 854 l 427 961 l 534 961 l 534 1068 l 641 1068 l 641 1175 l 748 1175 l 748 961 l 641 961 l 641 854 l 427 854 z "},"ö":{"ha":748,"x_min":0,"x_max":641,"o":"m 427 107 l 427 641 l 320 641 l 320 534 l 214 534 l 214 107 l 427 107 m 107 0 l 107 107 l 0 107 l 0 534 l 107 534 l 107 641 l 214 641 l 214 748 l 534 748 l 534 641 l 641 641 l 641 107 l 534 107 l 534 0 l 107 0 m 0 854 l 0 961 l 214 961 l 214 854 l 0 854 m 427 854 l 427 961 l 641 961 l 641 854 l 427 854 z "},"÷":{"ha":854,"x_min":107,"x_max":748,"o":"m 214 214 l 214 320 l 320 320 l 320 427 l 534 427 l 534 320 l 427 320 l 427 214 l 214 214 m 107 534 l 107 641 l 748 641 l 748 534 l 107 534 m 320 748 l 320 854 l 427 854 l 427 961 l 641 961 l 641 854 l 534 854 l 534 748 l 320 748 z "},"ø":{"ha":748,"x_min":0,"x_max":641,"o":"m 0 -107 l 0 0 l 107 0 l 107 -107 l 0 -107 m 427 107 l 427 320 l 320 320 l 320 534 l 427 534 l 427 641 l 320 641 l 320 534 l 214 534 l 214 320 l 320 320 l 320 214 l 214 214 l 214 107 l 427 107 m 107 0 l 107 107 l 0 107 l 0 534 l 107 534 l 107 641 l 214 641 l 214 748 l 534 748 l 534 641 l 641 641 l 641 107 l 534 107 l 534 0 l 107 0 m 534 748 l 534 854 l 641 854 l 641 748 l 534 748 z "},"ù":{"ha":854,"x_min":0,"x_max":748,"o":"m 107 0 l 107 107 l 0 107 l 0 641 l 107 641 l 107 748 l 214 748 l 214 107 l 427 107 l 427 0 l 107 0 m 534 0 l 534 107 l 427 107 l 427 641 l 534 641 l 534 748 l 641 748 l 641 107 l 748 107 l 748 0 l 534 0 m 214 854 l 214 961 l 107 961 l 107 1068 l 320 1068 l 320 961 l 427 961 l 427 854 l 214 854 z "},"ú":{"ha":854,"x_min":0,"x_max":748,"o":"m 107 0 l 107 107 l 0 107 l 0 641 l 107 641 l 107 748 l 214 748 l 214 107 l 427 107 l 427 0 l 107 0 m 534 0 l 534 107 l 427 107 l 427 641 l 534 641 l 534 748 l 641 748 l 641 107 l 748 107 l 748 0 l 534 0 m 214 854 l 214 961 l 320 961 l 320 1068 l 534 1068 l 534 961 l 427 961 l 427 854 l 214 854 z "},"û":{"ha":854,"x_min":0,"x_max":748,"o":"m 107 0 l 107 107 l 0 107 l 0 641 l 107 641 l 107 748 l 214 748 l 214 107 l 427 107 l 427 0 l 107 0 m 534 0 l 534 107 l 427 107 l 427 641 l 534 641 l 534 748 l 641 748 l 641 107 l 748 107 l 748 0 l 534 0 m 107 854 l 107 961 l 214 961 l 214 1068 l 320 1068 l 320 1175 l 427 1175 l 427 1068 l 534 1068 l 534 961 l 641 961 l 641 854 l 427 854 l 427 961 l 320 961 l 320 854 l 107 854 z "},"ü":{"ha":854,"x_min":0,"x_max":748,"o":"m 107 0 l 107 107 l 0 107 l 0 641 l 107 641 l 107 748 l 214 748 l 214 107 l 427 107 l 427 0 l 107 0 m 534 0 l 534 107 l 427 107 l 427 641 l 534 641 l 534 748 l 641 748 l 641 107 l 748 107 l 748 0 l 534 0 m 0 854 l 0 961 l 214 961 l 214 854 l 0 854 m 427 854 l 427 961 l 641 961 l 641 854 l 427 854 z "},"ý":{"ha":748,"x_min":0,"x_max":641,"o":"m 107 -214 l 107 -107 l 0 -107 l 0 0 l 214 0 l 214 -107 l 427 -107 l 427 107 l 107 107 l 107 214 l 0 214 l 0 641 l 107 641 l 107 748 l 214 748 l 214 214 l 427 214 l 427 641 l 534 641 l 534 748 l 641 748 l 641 -107 l 534 -107 l 534 -214 l 107 -214 m 214 854 l 214 961 l 320 961 l 320 1068 l 534 1068 l 534 961 l 427 961 l 427 854 l 214 854 z "},"þ":{"ha":854,"x_min":0,"x_max":748,"o":"m 0 -107 l 0 854 l 107 854 l 107 961 l 214 961 l 214 641 l 320 641 l 320 534 l 214 534 l 214 320 l 534 320 l 534 641 l 320 641 l 320 748 l 641 748 l 641 641 l 748 641 l 748 320 l 641 320 l 641 214 l 214 214 l 214 0 l 107 0 l 107 -107 l 0 -107 z "},"ÿ":{"ha":748,"x_min":0,"x_max":641,"o":"m 107 -214 l 107 -107 l 0 -107 l 0 0 l 214 0 l 214 -107 l 427 -107 l 427 107 l 107 107 l 107 214 l 0 214 l 0 641 l 107 641 l 107 748 l 214 748 l 214 214 l 427 214 l 427 641 l 534 641 l 534 748 l 641 748 l 641 -107 l 534 -107 l 534 -214 l 107 -214 m 0 854 l 0 961 l 214 961 l 214 854 l 0 854 m 427 854 l 427 961 l 641 961 l 641 854 l 427 854 z "},"Ÿ":{"ha":854,"x_min":0,"x_max":748,"o":"m 107 0 l 107 107 l 0 107 l 0 214 l 214 214 l 214 107 l 427 107 l 427 214 l 534 214 l 534 427 l 427 427 l 427 534 l 214 534 l 214 641 l 107 641 l 107 1068 l 0 1068 l 0 1175 l 320 1175 l 320 641 l 534 641 l 534 1068 l 427 1068 l 427 1175 l 748 1175 l 748 641 l 641 641 l 641 427 l 748 427 l 748 214 l 641 214 l 641 107 l 534 107 l 534 0 l 107 0 m 107 1282 l 107 1389 l 320 1389 l 320 1282 l 107 1282 m 534 1282 l 534 1389 l 748 1389 l 748 1282 l 534 1282 z "},"ẞ":{"ha":961,"x_min":0,"x_max":854,"o":"m 427 0 l 427 107 l 641 107 l 641 0 l 427 0 m 0 -214 l 0 -107 l 107 -107 l 107 1068 l 214 1068 l 214 1175 l 320 1175 l 320 -107 l 214 -107 l 214 -214 l 0 -214 m 641 107 l 641 534 l 534 534 l 534 854 l 641 854 l 641 1068 l 534 1068 l 534 1175 l 320 1175 l 320 1282 l 641 1282 l 641 1175 l 748 1175 l 748 1068 l 854 1068 l 854 854 l 748 854 l 748 748 l 641 748 l 641 641 l 748 641 l 748 534 l 854 534 l 854 214 l 748 214 l 748 107 l 641 107 z "},"—":{"ha":854,"x_min":0,"x_max":748,"o":"m 0 534 l 0 641 l 748 641 l 748 534 l 0 534 z "},"‘":{"ha":534,"x_min":214,"x_max":427,"o":"m 214 961 l 214 1282 l 320 1282 l 320 1175 l 427 1175 l 427 961 l 214 961 m 320 1282 l 320 1389 l 427 1389 l 427 1282 l 320 1282 z "},"’":{"ha":534,"x_min":214,"x_max":427,"o":"m 214 961 l 214 1068 l 320 1068 l 320 961 l 214 961 m 320 1068 l 320 1175 l 214 1175 l 214 1389 l 427 1389 l 427 1068 l 320 1068 z "},"‚":{"ha":534,"x_min":214,"x_max":427,"o":"m 214 -214 l 214 -107 l 320 -107 l 320 -214 l 214 -214 m 320 -107 l 320 0 l 214 0 l 214 214 l 427 214 l 427 -107 l 320 -107 z "},"‛":{"ha":534,"x_min":214,"x_max":427,"o":"m 320 961 l 320 1068 l 427 1068 l 427 961 l 320 961 m 214 1068 l 214 1389 l 427 1389 l 427 1175 l 320 1175 l 320 1068 l 214 1068 z "},"“":{"ha":748,"x_min":107,"x_max":641,"o":"m 107 961 l 107 1282 l 214 1282 l 214 1175 l 320 1175 l 320 961 l 107 961 m 427 961 l 427 1282 l 534 1282 l 534 1175 l 641 1175 l 641 961 l 427 961 m 214 1282 l 214 1389 l 320 1389 l 320 1282 l 214 1282 m 534 1282 l 534 1389 l 641 1389 l 641 1282 l 534 1282 z "},"”":{"ha":748,"x_min":107,"x_max":641,"o":"m 107 961 l 107 1068 l 214 1068 l 214 961 l 107 961 m 427 961 l 427 1068 l 534 1068 l 534 961 l 427 961 m 214 1068 l 214 1175 l 107 1175 l 107 1389 l 320 1389 l 320 1068 l 214 1068 m 534 1068 l 534 1175 l 427 1175 l 427 1389 l 641 1389 l 641 1068 l 534 1068 z "},"„":{"ha":748,"x_min":107,"x_max":641,"o":"m 107 -214 l 107 -107 l 214 -107 l 214 -214 l 107 -214 m 427 -214 l 427 -107 l 534 -107 l 534 -214 l 427 -214 m 214 -107 l 214 0 l 107 0 l 107 214 l 320 214 l 320 -107 l 214 -107 m 534 -107 l 534 0 l 427 0 l 427 214 l 641 214 l 641 -107 l 534 -107 z "},"†":{"ha":854,"x_min":107,"x_max":748,"o":"m 320 -214 l 320 854 l 107 854 l 107 961 l 320 961 l 320 1282 l 427 1282 l 427 1389 l 534 1389 l 534 961 l 748 961 l 748 854 l 534 854 l 534 -107 l 427 -107 l 427 -214 l 320 -214 z "},"•":{"ha":534,"x_min":107,"x_max":427,"o":"m 107 427 l 107 641 l 214 641 l 214 748 l 427 748 l 427 534 l 320 534 l 320 427 l 107 427 z "},"…":{"ha":961,"x_min":0,"x_max":854,"o":"m 0 0 l 0 214 l 214 214 l 214 0 l 0 0 m 320 0 l 320 214 l 534 214 l 534 0 l 320 0 m 641 0 l 641 214 l 854 214 l 854 0 l 641 0 z "},"‹":{"ha":748,"x_min":214,"x_max":641,"o":"m 534 214 l 534 427 l 427 427 l 427 534 l 214 534 l 214 641 l 427 641 l 427 748 l 534 748 l 534 961 l 641 961 l 641 641 l 534 641 l 534 534 l 641 534 l 641 214 l 534 214 z "},"›":{"ha":748,"x_min":214,"x_max":641,"o":"m 214 214 l 214 534 l 320 534 l 320 641 l 214 641 l 214 961 l 320 961 l 320 748 l 427 748 l 427 641 l 641 641 l 641 534 l 427 534 l 427 427 l 320 427 l 320 214 l 214 214 z "},"€":{"ha":961,"x_min":0,"x_max":854,"o":"m 320 0 l 320 107 l 214 107 l 214 214 l 107 214 l 107 534 l 0 534 l 0 641 l 107 641 l 107 748 l 0 748 l 0 854 l 107 854 l 107 1068 l 214 1068 l 214 1175 l 320 1175 l 320 1282 l 854 1282 l 854 1068 l 641 1068 l 641 1175 l 427 1175 l 427 1068 l 320 1068 l 320 854 l 641 854 l 641 748 l 320 748 l 320 641 l 641 641 l 641 534 l 320 534 l 320 214 l 427 214 l 427 107 l 641 107 l 641 214 l 854 214 l 854 107 l 748 107 l 748 0 l 320 0 z "},"™":{"ha":854,"x_min":0,"x_max":748,"o":"m 107 1068 l 107 1282 l 0 1282 l 0 1389 l 320 1389 l 320 1282 l 214 1282 l 214 1068 l 107 1068 m 427 1068 l 427 1389 l 748 1389 l 748 1068 l 641 1068 l 641 1175 l 534 1175 l 534 1068 l 427 1068 z "},"ﬁ":{"ha":961,"x_min":0,"x_max":854,"o":"m 534 854 l 534 961 l 748 961 l 748 854 l 534 854 m 0 -214 l 0 -107 l 107 -107 l 107 641 l 0 641 l 0 748 l 107 748 l 107 961 l 214 961 l 214 1068 l 427 1068 l 427 961 l 320 961 l 320 748 l 641 748 l 641 641 l 748 641 l 748 0 l 854 0 l 854 -107 l 641 -107 l 641 0 l 534 0 l 534 641 l 320 641 l 320 -107 l 214 -107 l 214 -214 l 0 -214 z "},"ﬂ":{"ha":961,"x_min":0,"x_max":854,"o":"m 0 -214 l 0 -107 l 107 -107 l 107 641 l 0 641 l 0 748 l 107 748 l 107 961 l 214 961 l 214 1068 l 641 1068 l 641 961 l 748 961 l 748 0 l 854 0 l 854 -107 l 641 -107 l 641 0 l 534 0 l 534 961 l 320 961 l 320 748 l 427 748 l 427 641 l 320 641 l 320 -107 l 214 -107 l 214 -214 l 0 -214 z "}}}
